<svg xmlns="http://www.w3.org/2000/svg" version="1.1" xmlns:xlink="http://www.w3.org/1999/xlink" xmlns:svgjs="http://svgjs.dev/svgjs" viewBox="0 0 1422 800"><circle r="13.5" cx="1163" cy="593" fill="hsl(29, 50%, 50%)" opacity="0.33"></circle><circle r="6.5" cx="149" cy="383" stroke-width="2" stroke="hsl(26, 50%, 50%)" fill="none" opacity="0.85"></circle><circle r="12.5" cx="1167" cy="546" fill="hsl(29, 50%, 50%)" opacity="0.67"></circle><circle r="13" cx="1226" cy="21" fill="hsl(29, 50%, 50%)" opacity="0.96"></circle><circle r="9.5" cx="84" cy="173" fill="hsl(26, 50%, 50%)" opacity="0.38"></circle><circle r="9" cx="482" cy="601" stroke-width="2" stroke="hsl(27, 50%, 50%)" fill="none" opacity="0.67"></circle><circle r="14" cx="1253" cy="140" fill="hsl(29, 50%, 50%)" opacity="0.49"></circle><circle r="7.5" cx="649" cy="423" fill="hsl(26, 50%, 50%)" opacity="0.46"></circle><circle r="13" cx="445" cy="342" fill="hsl(27, 50%, 50%)" opacity="0.22"></circle><circle r="11" cx="534" cy="435" fill="hsl(27, 50%, 50%)" opacity="0.38"></circle><circle r="8.5" cx="998" cy="392" stroke-width="2" stroke="hsl(28, 50%, 50%)" fill="none" opacity="0.69"></circle><circle r="17" cx="1396" cy="504" fill="hsl(29, 50%, 50%)" opacity="0.68"></circle><circle r="11.5" cx="1015" cy="317" fill="hsl(28, 50%, 50%)" opacity="0.83"></circle><circle r="8" cx="237" cy="212" stroke-width="2" stroke="hsl(26, 50%, 50%)" fill="none" opacity="0.57"></circle><circle r="8.5" cx="348" cy="572" stroke-width="2" stroke="hsl(27, 50%, 50%)" fill="none" opacity="0.38"></circle><circle r="8" cx="616" cy="609" fill="hsl(26, 50%, 50%)" opacity="0.94"></circle><circle r="10.5" cx="1170" cy="128" stroke-width="2" stroke="hsl(29, 50%, 50%)" fill="none" opacity="0.40"></circle><circle r="9.5" cx="31" cy="204" stroke-width="2" stroke="hsl(27, 50%, 50%)" fill="none" opacity="0.42"></circle><circle r="18.5" cx="1342" cy="533" fill="hsl(29, 50%, 50%)" opacity="0.64"></circle><circle r="13" cx="1155" cy="96" stroke-width="2" stroke="hsl(29, 50%, 50%)" fill="none" opacity="0.40"></circle><circle r="7" cx="750" cy="465" stroke-width="2" stroke="hsl(26, 50%, 50%)" fill="none" opacity="0.68"></circle><circle r="5.5" cx="523" cy="565" fill="hsl(27, 50%, 50%)" opacity="0.34"></circle><circle r="10" cx="198" cy="39" stroke-width="2" stroke="hsl(27, 50%, 50%)" fill="none" opacity="0.49"></circle><circle r="10" cx="1150" cy="336" stroke-width="2" stroke="hsl(29, 50%, 50%)" fill="none" opacity="0.51"></circle><circle r="10.5" cx="1100" cy="212" stroke-width="2" stroke="hsl(29, 50%, 50%)" fill="none" opacity="0.21"></circle><circle r="10.5" cx="1227" cy="300" fill="hsl(29, 50%, 50%)" opacity="0.47"></circle><circle r="10" cx="528" cy="370" fill="hsl(27, 50%, 50%)" opacity="0.92"></circle><circle r="8" cx="452" cy="219" stroke-width="2" stroke="hsl(27, 50%, 50%)" fill="none" opacity="0.91"></circle><circle r="10" cx="852" cy="403" stroke-width="2" stroke="hsl(27, 50%, 50%)" fill="none" opacity="0.46"></circle><circle r="11.5" cx="1162" cy="377" fill="hsl(29, 50%, 50%)" opacity="0.26"></circle><circle r="13" cx="1246" cy="239" stroke-width="2" stroke="hsl(29, 50%, 50%)" fill="none" opacity="0.55"></circle><circle r="10" cx="1289" cy="565" stroke-width="2" stroke="hsl(29, 50%, 50%)" fill="none" opacity="0.95"></circle><circle r="9" cx="313" cy="445" fill="hsl(27, 50%, 50%)" opacity="0.75"></circle><circle r="10" cx="936" cy="457" fill="hsl(28, 50%, 50%)" opacity="0.16"></circle><circle r="7" cx="796" cy="525" stroke-width="2" stroke="hsl(27, 50%, 50%)" fill="none" opacity="0.97"></circle><circle r="9" cx="687" cy="68" fill="hsl(26, 50%, 50%)" opacity="0.22"></circle><circle r="11.5" cx="457" cy="38" fill="hsl(26, 50%, 50%)" opacity="0.15"></circle><circle r="9" cx="372" cy="249" fill="hsl(27, 50%, 50%)" opacity="0.41"></circle><circle r="9.5" cx="823" cy="672" fill="hsl(27, 50%, 50%)" opacity="0.67"></circle><circle r="20.5" cx="1391" cy="612" stroke-width="2" stroke="hsl(29, 50%, 50%)" fill="none" opacity="0.87"></circle><circle r="15" cx="1112" cy="266" stroke-width="2" stroke="hsl(29, 50%, 50%)" fill="none" opacity="0.99"></circle><circle r="14" cx="937" cy="749" fill="hsl(28, 50%, 50%)" opacity="0.59"></circle><circle r="16.5" cx="1072" cy="363" stroke-width="2" stroke="hsl(28, 50%, 50%)" fill="none" opacity="0.52"></circle><circle r="7.5" cx="543" cy="725" fill="hsl(27, 50%, 50%)" opacity="0.26"></circle><circle r="10" cx="215" cy="663" stroke-width="2" stroke="hsl(26, 50%, 50%)" fill="none" opacity="0.15"></circle><circle r="6.5" cx="322" cy="20" fill="hsl(27, 50%, 50%)" opacity="0.31"></circle><circle r="8" cx="708" cy="426" fill="hsl(26, 50%, 50%)" opacity="0.30"></circle><circle r="17.5" cx="1309" cy="481" fill="hsl(29, 50%, 50%)" opacity="0.94"></circle><circle r="16" cx="1197" cy="708" fill="hsl(29, 50%, 50%)" opacity="0.29"></circle><circle r="13.5" cx="1161" cy="280" fill="hsl(29, 50%, 50%)" opacity="0.23"></circle><circle r="13" cx="923" cy="283" stroke-width="2" stroke="hsl(27, 50%, 50%)" fill="none" opacity="0.39"></circle><circle r="9" cx="1198" cy="298" stroke-width="2" stroke="hsl(29, 50%, 50%)" fill="none" opacity="0.67"></circle><circle r="15.5" cx="1154" cy="735" stroke-width="2" stroke="hsl(29, 50%, 50%)" fill="none" opacity="0.39"></circle><circle r="6" cx="352" cy="643" fill="hsl(27, 50%, 50%)" opacity="0.46"></circle><circle r="8.5" cx="493" cy="97" fill="hsl(27, 50%, 50%)" opacity="0.63"></circle><circle r="17" cx="1143" cy="651" stroke-width="2" stroke="hsl(29, 50%, 50%)" fill="none" opacity="0.25"></circle><circle r="14" cx="1032" cy="643" fill="hsl(28, 50%, 50%)" opacity="0.72"></circle><circle r="8.5" cx="73" cy="728" fill="hsl(26, 50%, 50%)" opacity="0.67"></circle><circle r="7" cx="406" cy="505" fill="hsl(27, 50%, 50%)" opacity="0.81"></circle><circle r="6" cx="17" cy="770" fill="hsl(27, 50%, 50%)" opacity="0.20"></circle><circle r="12" cx="1181" cy="780" stroke-width="2" stroke="hsl(29, 50%, 50%)" fill="none" opacity="0.83"></circle><circle r="17.5" cx="1269" cy="187" fill="hsl(29, 50%, 50%)" opacity="0.55"></circle><circle r="12" cx="1329" cy="414" stroke-width="2" stroke="hsl(29, 50%, 50%)" fill="none" opacity="0.32"></circle><circle r="11.5" cx="977" cy="126" stroke-width="2" stroke="hsl(28, 50%, 50%)" fill="none" opacity="0.28"></circle><circle r="6.5" cx="602" cy="779" fill="hsl(26, 50%, 50%)" opacity="0.62"></circle><circle r="7" cx="420" cy="468" stroke-width="2" stroke="hsl(27, 50%, 50%)" fill="none" opacity="0.81"></circle><circle r="7" cx="471" cy="511" stroke-width="2" stroke="hsl(27, 50%, 50%)" fill="none" opacity="0.74"></circle><circle r="11" cx="891" cy="476" fill="hsl(27, 50%, 50%)" opacity="0.52"></circle><circle r="8.5" cx="655" cy="662" stroke-width="2" stroke="hsl(26, 50%, 50%)" fill="none" opacity="0.52"></circle><circle r="8.5" cx="382" cy="613" stroke-width="2" stroke="hsl(27, 50%, 50%)" fill="none" opacity="0.79"></circle><circle r="9.5" cx="34" cy="78" fill="hsl(27, 50%, 50%)" opacity="0.44"></circle><circle r="8.5" cx="248" cy="331" fill="hsl(26, 50%, 50%)" opacity="0.54"></circle><circle r="7" cx="682" cy="380" fill="hsl(26, 50%, 50%)" opacity="0.69"></circle><circle r="5.5" cx="310" cy="517" fill="hsl(27, 50%, 50%)" opacity="0.60"></circle><circle r="15" cx="1253" cy="467" stroke-width="2" stroke="hsl(29, 50%, 50%)" fill="none" opacity="0.75"></circle><circle r="6.5" cx="775" cy="425" fill="hsl(26, 50%, 50%)" opacity="0.49"></circle><circle r="8" cx="193" cy="531" fill="hsl(26, 50%, 50%)" opacity="0.21"></circle><circle r="9" cx="182" cy="182" fill="hsl(26, 50%, 50%)" opacity="0.47"></circle><circle r="7.5" cx="366" cy="518" stroke-width="2" stroke="hsl(27, 50%, 50%)" fill="none" opacity="0.11"></circle><circle r="12" cx="532" cy="667" stroke-width="2" stroke="hsl(27, 50%, 50%)" fill="none" opacity="0.21"></circle><circle r="7.5" cx="394" cy="199" stroke-width="2" stroke="hsl(27, 50%, 50%)" fill="none" opacity="0.57"></circle><circle r="21.5" cx="1339" cy="721" fill="hsl(29, 50%, 50%)" opacity="0.89"></circle><circle r="9" cx="767" cy="650" fill="hsl(26, 50%, 50%)" opacity="0.15"></circle><circle r="9.5" cx="1002" cy="356" fill="hsl(28, 50%, 50%)" opacity="0.65"></circle><circle r="8.5" cx="601" cy="671" fill="hsl(26, 50%, 50%)" opacity="0.98"></circle><circle r="5.5" cx="94" cy="774" fill="hsl(26, 50%, 50%)" opacity="0.82"></circle><circle r="5" cx="530" cy="783" stroke-width="2" stroke="hsl(27, 50%, 50%)" fill="none" opacity="0.90"></circle><circle r="9.5" cx="34" cy="502" stroke-width="2" stroke="hsl(27, 50%, 50%)" fill="none" opacity="0.40"></circle><circle r="8.5" cx="1241" cy="786" fill="hsl(29, 50%, 50%)" opacity="0.20"></circle><circle r="6" cx="191" cy="109" stroke-width="2" stroke="hsl(26, 50%, 50%)" fill="none" opacity="0.60"></circle><circle r="14" cx="1188" cy="214" fill="hsl(29, 50%, 50%)" opacity="0.23"></circle><circle r="10" cx="133" cy="589" fill="hsl(26, 50%, 50%)" opacity="0.22"></circle><circle r="8" cx="52" cy="641" stroke-width="2" stroke="hsl(27, 50%, 50%)" fill="none" opacity="0.28"></circle><circle r="14" cx="1241" cy="669" stroke-width="2" stroke="hsl(29, 50%, 50%)" fill="none" opacity="0.83"></circle><circle r="8.5" cx="982" cy="423" fill="hsl(28, 50%, 50%)" opacity="0.52"></circle><circle r="7" cx="731" cy="555" stroke-width="2" stroke="hsl(26, 50%, 50%)" fill="none" opacity="0.47"></circle><circle r="14" cx="1341" cy="600" stroke-width="2" stroke="hsl(29, 50%, 50%)" fill="none" opacity="0.36"></circle><circle r="9.5" cx="672" cy="560" stroke-width="2" stroke="hsl(26, 50%, 50%)" fill="none" opacity="0.85"></circle><circle r="7.5" cx="418" cy="647" fill="hsl(27, 50%, 50%)" opacity="0.22"></circle><circle r="6" cx="18" cy="428" fill="hsl(27, 50%, 50%)" opacity="0.47"></circle><circle r="8" cx="453" cy="138" fill="hsl(27, 50%, 50%)" opacity="0.80"></circle><circle r="12.5" cx="975" cy="27" stroke-width="2" stroke="hsl(28, 50%, 50%)" fill="none" opacity="0.13"></circle><circle r="12" cx="1360" cy="781" fill="hsl(29, 50%, 50%)" opacity="0.35"></circle><circle r="8" cx="26" cy="714" stroke-width="2" stroke="hsl(27, 50%, 50%)" fill="none" opacity="0.85"></circle><circle r="10.5" cx="373" cy="307" fill="hsl(27, 50%, 50%)" opacity="0.71"></circle><circle r="5" cx="191" cy="398" fill="hsl(26, 50%, 50%)" opacity="0.78"></circle><circle r="4" cx="522" cy="750" stroke-width="2" stroke="hsl(27, 50%, 50%)" fill="none" opacity="0.52"></circle><circle r="8.5" cx="205" cy="739" stroke-width="2" stroke="hsl(26, 50%, 50%)" fill="none" opacity="0.63"></circle><circle r="15" cx="1117" cy="572" stroke-width="2" stroke="hsl(29, 50%, 50%)" fill="none" opacity="0.35"></circle><circle r="5" cx="13" cy="638" stroke-width="2" stroke="hsl(27, 50%, 50%)" fill="none" opacity="0.13"></circle><circle r="9" cx="407" cy="567" fill="hsl(27, 50%, 50%)" opacity="0.80"></circle><circle r="10" cx="1133" cy="520" fill="hsl(29, 50%, 50%)" opacity="0.50"></circle><circle r="7" cx="605" cy="528" fill="hsl(26, 50%, 50%)" opacity="0.57"></circle><circle r="12.5" cx="1000" cy="774" fill="hsl(28, 50%, 50%)" opacity="0.40"></circle><circle r="16" cx="1249" cy="399" fill="hsl(29, 50%, 50%)" opacity="0.93"></circle><circle r="10" cx="1245" cy="506" fill="hsl(29, 50%, 50%)" opacity="0.96"></circle><circle r="6" cx="265" cy="761" fill="hsl(26, 50%, 50%)" opacity="0.69"></circle><circle r="13" cx="1057" cy="423" fill="hsl(28, 50%, 50%)" opacity="0.30"></circle><circle r="8.5" cx="311" cy="281" stroke-width="2" stroke="hsl(27, 50%, 50%)" fill="none" opacity="0.61"></circle><circle r="10" cx="1250" cy="544" stroke-width="2" stroke="hsl(29, 50%, 50%)" fill="none" opacity="0.54"></circle><circle r="10" cx="407" cy="396" stroke-width="2" stroke="hsl(27, 50%, 50%)" fill="none" opacity="0.75"></circle><circle r="7.5" cx="596" cy="377" fill="hsl(26, 50%, 50%)" opacity="0.41"></circle><circle r="9" cx="28" cy="341" stroke-width="2" stroke="hsl(27, 50%, 50%)" fill="none" opacity="0.91"></circle><circle r="7.5" cx="1000" cy="184" fill="hsl(28, 50%, 50%)" opacity="0.24"></circle><circle r="8" cx="656" cy="491" fill="hsl(26, 50%, 50%)" opacity="0.50"></circle><circle r="8" cx="463" cy="639" stroke-width="2" stroke="hsl(27, 50%, 50%)" fill="none" opacity="0.32"></circle><circle r="9.5" cx="810" cy="467" fill="hsl(27, 50%, 50%)" opacity="0.24"></circle><circle r="15.5" cx="1077" cy="664" fill="hsl(28, 50%, 50%)" opacity="0.52"></circle><circle r="14.5" cx="1138" cy="448" fill="hsl(29, 50%, 50%)" opacity="0.78"></circle><circle r="16" cx="1296" cy="360" fill="hsl(29, 50%, 50%)" opacity="0.85"></circle><circle r="5.5" cx="588" cy="567" stroke-width="2" stroke="hsl(26, 50%, 50%)" fill="none" opacity="0.66"></circle><circle r="13" cx="1285" cy="529" stroke-width="2" stroke="hsl(29, 50%, 50%)" fill="none" opacity="0.31"></circle><circle r="13" cx="1261" cy="277" fill="hsl(29, 50%, 50%)" opacity="0.66"></circle><circle r="16" cx="1195" cy="496" fill="hsl(29, 50%, 50%)" opacity="0.25"></circle><circle r="6.5" cx="647" cy="346" stroke-width="2" stroke="hsl(26, 50%, 50%)" fill="none" opacity="0.13"></circle><circle r="11" cx="454" cy="706" fill="hsl(27, 50%, 50%)" opacity="0.53"></circle><circle r="13" cx="620" cy="134" fill="hsl(26, 50%, 50%)" opacity="0.52"></circle><circle r="8.5" cx="537" cy="57" fill="hsl(26, 50%, 50%)" opacity="0.57"></circle><circle r="10.5" cx="927" cy="183" fill="hsl(27, 50%, 50%)" opacity="0.37"></circle><circle r="12" cx="949" cy="560" fill="hsl(28, 50%, 50%)" opacity="0.59"></circle><circle r="6" cx="81" cy="417" stroke-width="2" stroke="hsl(26, 50%, 50%)" fill="none" opacity="0.57"></circle><circle r="7.5" cx="420" cy="253" stroke-width="2" stroke="hsl(27, 50%, 50%)" fill="none" opacity="0.48"></circle><circle r="6.5" cx="218" cy="473" fill="hsl(26, 50%, 50%)" opacity="0.46"></circle><circle r="7.5" cx="198" cy="590" fill="hsl(26, 50%, 50%)" opacity="0.57"></circle><circle r="9.5" cx="387" cy="762" stroke-width="2" stroke="hsl(27, 50%, 50%)" fill="none" opacity="0.54"></circle><circle r="11" cx="574" cy="289" fill="hsl(27, 50%, 50%)" opacity="0.64"></circle><circle r="17" cx="1356" cy="323" fill="hsl(29, 50%, 50%)" opacity="0.57"></circle><circle r="7.5" cx="125" cy="431" fill="hsl(26, 50%, 50%)" opacity="0.61"></circle><circle r="9.5" cx="858" cy="102" stroke-width="2" stroke="hsl(27, 50%, 50%)" fill="none" opacity="0.35"></circle><circle r="11.5" cx="1100" cy="415" fill="hsl(29, 50%, 50%)" opacity="0.11"></circle><circle r="7.5" cx="121" cy="336" stroke-width="2" stroke="hsl(26, 50%, 50%)" fill="none" opacity="0.26"></circle><circle r="7.5" cx="141" cy="699" fill="hsl(26, 50%, 50%)" opacity="0.89"></circle><circle r="7.5" cx="443" cy="538" stroke-width="2" stroke="hsl(27, 50%, 50%)" fill="none" opacity="0.64"></circle><circle r="12" cx="1116" cy="328" fill="hsl(29, 50%, 50%)" opacity="0.31"></circle><circle r="12" cx="979" cy="78" fill="hsl(28, 50%, 50%)" opacity="0.12"></circle><circle r="9" cx="490" cy="267" stroke-width="2" stroke="hsl(27, 50%, 50%)" fill="none" opacity="0.59"></circle><circle r="7" cx="788" cy="90" fill="hsl(27, 50%, 50%)" opacity="0.57"></circle><circle r="6.5" cx="610" cy="329" fill="hsl(26, 50%, 50%)" opacity="0.44"></circle><circle r="18.5" cx="1201" cy="438" fill="hsl(29, 50%, 50%)" opacity="0.12"></circle><circle r="7.5" cx="228" cy="138" stroke-width="2" stroke="hsl(26, 50%, 50%)" fill="none" opacity="0.61"></circle><circle r="9.5" cx="765" cy="30" stroke-width="2" stroke="hsl(27, 50%, 50%)" fill="none" opacity="0.28"></circle><circle r="14.5" cx="845" cy="294" fill="hsl(27, 50%, 50%)" opacity="0.76"></circle><circle r="11" cx="1226" cy="197" stroke-width="2" stroke="hsl(29, 50%, 50%)" fill="none" opacity="0.94"></circle><circle r="11.5" cx="1041" cy="146" stroke-width="2" stroke="hsl(28, 50%, 50%)" fill="none" opacity="0.46"></circle><circle r="6.5" cx="593" cy="424" fill="hsl(26, 50%, 50%)" opacity="0.69"></circle><circle r="11.5" cx="603" cy="215" fill="hsl(26, 50%, 50%)" opacity="0.80"></circle><circle r="21.5" cx="1322" cy="156" fill="hsl(29, 50%, 50%)" opacity="0.22"></circle><circle r="10.5" cx="873" cy="27" fill="hsl(27, 50%, 50%)" opacity="0.86"></circle><circle r="15" cx="1070" cy="574" stroke-width="2" stroke="hsl(28, 50%, 50%)" fill="none" opacity="0.58"></circle><circle r="6.5" cx="215" cy="426" fill="hsl(26, 50%, 50%)" opacity="0.85"></circle><circle r="11" cx="1020" cy="481" stroke-width="2" stroke="hsl(28, 50%, 50%)" fill="none" opacity="0.55"></circle><circle r="6" cx="196" cy="330" stroke-width="2" stroke="hsl(26, 50%, 50%)" fill="none" opacity="0.70"></circle><circle r="15" cx="1256" cy="601" stroke-width="2" stroke="hsl(29, 50%, 50%)" fill="none" opacity="0.31"></circle><circle r="13.5" cx="1001" cy="601" stroke-width="2" stroke="hsl(28, 50%, 50%)" fill="none" opacity="0.55"></circle><circle r="7.5" cx="709" cy="493" fill="hsl(26, 50%, 50%)" opacity="0.19"></circle><circle r="10" cx="922" cy="22" fill="hsl(28, 50%, 50%)" opacity="0.59"></circle><circle r="11" cx="839" cy="766" fill="hsl(27, 50%, 50%)" opacity="0.30"></circle><circle r="12" cx="890" cy="540" stroke-width="2" stroke="hsl(27, 50%, 50%)" fill="none" opacity="0.85"></circle><circle r="18" cx="1292" cy="28" fill="hsl(29, 50%, 50%)" opacity="0.71"></circle><circle r="11" cx="1207" cy="656" stroke-width="2" stroke="hsl(29, 50%, 50%)" fill="none" opacity="0.96"></circle><circle r="7.5" cx="604" cy="727" fill="hsl(26, 50%, 50%)" opacity="0.14"></circle><circle r="11.5" cx="846" cy="173" fill="hsl(27, 50%, 50%)" opacity="0.50"></circle><circle r="5.5" cx="263" cy="399" fill="hsl(26, 50%, 50%)" opacity="0.21"></circle><circle r="6.5" cx="294" cy="370" stroke-width="2" stroke="hsl(27, 50%, 50%)" fill="none" opacity="0.79"></circle><circle r="5.5" cx="21" cy="386" stroke-width="2" stroke="hsl(27, 50%, 50%)" fill="none" opacity="0.43"></circle><circle r="9" cx="284" cy="176" fill="hsl(26, 50%, 50%)" opacity="0.55"></circle><circle r="5" cx="312" cy="561" fill="hsl(27, 50%, 50%)" opacity="0.37"></circle><circle r="12.5" cx="1085" cy="506" stroke-width="2" stroke="hsl(28, 50%, 50%)" fill="none" opacity="0.12"></circle><circle r="8.5" cx="555" cy="501" stroke-width="2" stroke="hsl(27, 50%, 50%)" fill="none" opacity="0.45"></circle><circle r="8.5" cx="276" cy="707" stroke-width="2" stroke="hsl(26, 50%, 50%)" fill="none" opacity="0.59"></circle><circle r="4" cx="51" cy="423" fill="hsl(27, 50%, 50%)" opacity="0.62"></circle><circle r="11" cx="1070" cy="183" fill="hsl(28, 50%, 50%)" opacity="0.62"></circle><circle r="5.5" cx="757" cy="519" stroke-width="2" stroke="hsl(26, 50%, 50%)" fill="none" opacity="1.00"></circle><circle r="4" cx="127" cy="786" stroke-width="2" stroke="hsl(26, 50%, 50%)" fill="none" opacity="0.29"></circle><circle r="19" cx="1384" cy="111" stroke-width="2" stroke="hsl(29, 50%, 50%)" fill="none" opacity="0.54"></circle><circle r="8" cx="271" cy="106" fill="hsl(26, 50%, 50%)" opacity="0.58"></circle><circle r="19" cx="1321" cy="276" stroke-width="2" stroke="hsl(29, 50%, 50%)" fill="none" opacity="0.30"></circle><circle r="16" cx="1355" cy="387" fill="hsl(29, 50%, 50%)" opacity="0.38"></circle><circle r="6.5" cx="266" cy="445" stroke-width="2" stroke="hsl(26, 50%, 50%)" fill="none" opacity="0.21"></circle><circle r="6.5" cx="759" cy="383" fill="hsl(26, 50%, 50%)" opacity="0.23"></circle><circle r="12.5" cx="64" cy="555" stroke-width="2" stroke="hsl(27, 50%, 50%)" fill="none" opacity="0.59"></circle><circle r="9" cx="339" cy="128" stroke-width="2" stroke="hsl(27, 50%, 50%)" fill="none" opacity="0.54"></circle><circle r="12" cx="961" cy="509" fill="hsl(28, 50%, 50%)" opacity="0.65"></circle><circle r="13" cx="882" cy="672" stroke-width="2" stroke="hsl(27, 50%, 50%)" fill="none" opacity="0.61"></circle><circle r="6" cx="427" cy="169" stroke-width="2" stroke="hsl(27, 50%, 50%)" fill="none" opacity="0.42"></circle><circle r="8" cx="479" cy="462" stroke-width="2" stroke="hsl(27, 50%, 50%)" fill="none" opacity="0.32"></circle><circle r="11" cx="601" cy="41" stroke-width="2" stroke="hsl(26, 50%, 50%)" fill="none" opacity="0.41"></circle><circle r="6.5" cx="817" cy="115" stroke-width="2" stroke="hsl(27, 50%, 50%)" fill="none" opacity="0.51"></circle><circle r="5.5" cx="250" cy="555" fill="hsl(26, 50%, 50%)" opacity="0.99"></circle><circle r="9.5" cx="256" cy="31" stroke-width="2" stroke="hsl(27, 50%, 50%)" fill="none" opacity="0.54"></circle><circle r="11" cx="128" cy="29" stroke-width="2" stroke="hsl(27, 50%, 50%)" fill="none" opacity="0.11"></circle><circle r="13" cx="1223" cy="748" fill="hsl(29, 50%, 50%)" opacity="0.85"></circle><circle r="10.5" cx="1133" cy="393" fill="hsl(29, 50%, 50%)" opacity="0.77"></circle><circle r="8.5" cx="310" cy="68" stroke-width="2" stroke="hsl(26, 50%, 50%)" fill="none" opacity="0.88"></circle><circle r="17" cx="997" cy="707" fill="hsl(28, 50%, 50%)" opacity="0.67"></circle><circle r="15" cx="1109" cy="774" fill="hsl(29, 50%, 50%)" opacity="0.11"></circle><circle r="10.5" cx="369" cy="696" stroke-width="2" stroke="hsl(27, 50%, 50%)" fill="none" opacity="0.61"></circle><circle r="11" cx="733" cy="114" stroke-width="2" stroke="hsl(26, 50%, 50%)" fill="none" opacity="0.84"></circle><circle r="16" cx="1198" cy="58" fill="hsl(29, 50%, 50%)" opacity="0.24"></circle><circle r="12.5" cx="1403" cy="409" fill="hsl(29, 50%, 50%)" opacity="0.20"></circle><circle r="21" cx="1390" cy="178" stroke-width="2" stroke="hsl(29, 50%, 50%)" fill="none" opacity="0.44"></circle><circle r="14" cx="1031" cy="266" stroke-width="2" stroke="hsl(28, 50%, 50%)" fill="none" opacity="0.42"></circle><circle r="3.5" cx="164" cy="342" fill="hsl(26, 50%, 50%)" opacity="0.25"></circle><circle r="16" cx="1364" cy="453" stroke-width="2" stroke="hsl(29, 50%, 50%)" fill="none" opacity="0.96"></circle><circle r="14.5" cx="976" cy="251" fill="hsl(28, 50%, 50%)" opacity="0.85"></circle><circle r="16.5" cx="1247" cy="82" fill="hsl(29, 50%, 50%)" opacity="0.46"></circle><circle r="17" cx="1396" cy="701" fill="hsl(29, 50%, 50%)" opacity="0.99"></circle><circle r="10" cx="699" cy="707" fill="hsl(26, 50%, 50%)" opacity="0.94"></circle><circle r="8" cx="113" cy="650" stroke-width="2" stroke="hsl(26, 50%, 50%)" fill="none" opacity="0.73"></circle><circle r="7" cx="487" cy="552" stroke-width="2" stroke="hsl(27, 50%, 50%)" fill="none" opacity="0.47"></circle><circle r="9.5" cx="981" cy="462" stroke-width="2" stroke="hsl(28, 50%, 50%)" fill="none" opacity="0.22"></circle><circle r="9.5" cx="30" cy="137" fill="hsl(27, 50%, 50%)" opacity="0.52"></circle><circle r="15.5" cx="1399" cy="343" fill="hsl(29, 50%, 50%)" opacity="0.36"></circle><circle r="9.5" cx="345" cy="361" fill="hsl(27, 50%, 50%)" opacity="0.94"></circle><circle r="7.5" cx="249" cy="611" fill="hsl(26, 50%, 50%)" opacity="0.75"></circle><circle r="9.5" cx="709" cy="623" stroke-width="2" stroke="hsl(26, 50%, 50%)" fill="none" opacity="0.49"></circle><circle r="6.5" cx="512" cy="504" fill="hsl(27, 50%, 50%)" opacity="0.52"></circle><circle r="5" cx="283" cy="549" fill="hsl(26, 50%, 50%)" opacity="0.71"></circle><circle r="19.5" cx="1299" cy="96" fill="hsl(29, 50%, 50%)" opacity="0.60"></circle><circle r="8" cx="144" cy="282" fill="hsl(26, 50%, 50%)" opacity="0.79"></circle><circle r="8.5" cx="206" cy="264" stroke-width="2" stroke="hsl(26, 50%, 50%)" fill="none" opacity="0.18"></circle><circle r="8.5" cx="549" cy="599" fill="hsl(27, 50%, 50%)" opacity="0.30"></circle><circle r="16.5" cx="1299" cy="653" fill="hsl(29, 50%, 50%)" opacity="0.21"></circle><circle r="7.5" cx="300" cy="612" stroke-width="2" stroke="hsl(27, 50%, 50%)" fill="none" opacity="0.92"></circle><circle r="6.5" cx="687" cy="324" fill="hsl(26, 50%, 50%)" opacity="0.37"></circle><circle r="13.5" cx="948" cy="662" stroke-width="2" stroke="hsl(28, 50%, 50%)" fill="none" opacity="0.29"></circle><circle r="12.5" cx="703" cy="194" stroke-width="2" stroke="hsl(26, 50%, 50%)" fill="none" opacity="0.31"></circle><circle r="8" cx="335" cy="760" fill="hsl(27, 50%, 50%)" opacity="0.23"></circle></svg>