<svg xmlns="http://www.w3.org/2000/svg" version="1.1" xmlns:xlink="http://www.w3.org/1999/xlink" xmlns:svgjs="http://svgjs.dev/svgjs" viewBox="0 0 800 800" opacity="0.24"><defs><linearGradient gradientTransform="rotate(270)" x1="50%" y1="0%" x2="50%" y2="100%" id="sssquiggly-grad"><stop stop-color="hsla(272, 75%, 49%, 1.00)" stop-opacity="1" offset="0%"></stop><stop stop-color="hsla(35, 34%, 59%, 1.00)" stop-opacity="1" offset="100%"></stop></linearGradient></defs><g stroke-width="2" stroke="url(#sssquiggly-grad)" fill="none" stroke-linecap="round" transform="matrix(1,0,0,1,0,-277.983793258667)"><path d="M10,10C21.805555555555557,10.416666666666666,40.97222222222223,15.333333333333332,66.66666666666667,12C92.36111111111111,8.666666666666668,105.55555555555557,-6.833333333333333,133.33333333333334,-6C161.11111111111111,-5.166666666666667,172.22222222222223,15.166666666666666,200,16C227.77777777777777,16.833333333333332,238.8888888888889,-2.833333333333333,266.6666666666667,-2C294.44444444444446,-1.1666666666666667,305.5555555555556,19.166666666666668,333.33333333333337,20C361.11111111111114,20.833333333333332,372.22222222222223,1.1666666666666667,400,2C427.77777777777777,2.833333333333333,438.8888888888889,23.166666666666668,466.6666666666667,24C494.44444444444446,24.833333333333332,505.5555555555556,5.166666666666667,533.3333333333334,6C561.1111111111111,6.833333333333333,572.2222222222222,27.166666666666668,600,28C627.7777777777778,28.833333333333332,638.8888888888889,9.166666666666666,666.6666666666667,10C694.4444444444446,10.833333333333334,707.6388888888889,32,733.3333333333334,32C759.0277777777778,32,778.1944444444445,14.583333333333332,790,10"></path><path d="M10,10C21.805555555555557,10.416666666666666,40.97222222222223,15.333333333333332,66.66666666666667,12C92.36111111111111,8.666666666666668,105.55555555555557,-6.833333333333333,133.33333333333334,-6C161.11111111111111,-5.166666666666667,172.22222222222223,15.166666666666666,200,16C227.77777777777777,16.833333333333332,238.8888888888889,-2.833333333333333,266.6666666666667,-2C294.44444444444446,-1.1666666666666667,305.5555555555556,19.166666666666668,333.33333333333337,20C361.11111111111114,20.833333333333332,372.22222222222223,1.1666666666666667,400,2C427.77777777777777,2.833333333333333,438.8888888888889,23.166666666666668,466.6666666666667,24C494.44444444444446,24.833333333333332,505.5555555555556,5.166666666666667,533.3333333333334,6C561.1111111111111,6.833333333333333,572.2222222222222,27.166666666666668,600,28C627.7777777777778,28.833333333333332,638.8888888888889,9.166666666666666,666.6666666666667,10C694.4444444444446,10.833333333333334,707.6388888888889,32,733.3333333333334,32C759.0277777777778,32,778.1944444444445,14.583333333333332,790,10" transform="matrix(1,0,0,1,0,1330)"></path><path d="M10,10C21.805555555555557,10.416666666666666,40.97222222222223,15.333333333333332,66.66666666666667,12C92.36111111111111,8.666666666666668,105.55555555555557,-6.833333333333333,133.33333333333334,-6C161.11111111111111,-5.166666666666667,172.22222222222223,15.166666666666666,200,16C227.77777777777777,16.833333333333332,238.8888888888889,-2.833333333333333,266.6666666666667,-2C294.44444444444446,-1.1666666666666667,305.5555555555556,19.166666666666668,333.33333333333337,20C361.11111111111114,20.833333333333332,372.22222222222223,1.1666666666666667,400,2C427.77777777777777,2.833333333333333,438.8888888888889,23.166666666666668,466.6666666666667,24C494.44444444444446,24.833333333333332,505.5555555555556,5.166666666666667,533.3333333333334,6C561.1111111111111,6.833333333333333,572.2222222222222,27.166666666666668,600,28C627.7777777777778,28.833333333333332,638.8888888888889,9.166666666666666,666.6666666666667,10C694.4444444444446,10.833333333333334,707.6388888888889,32,733.3333333333334,32C759.0277777777778,32,778.1944444444445,14.583333333333332,790,10" transform="matrix(1,0,0,1,0,1295)"></path><path d="M10,10C21.805555555555557,10.416666666666666,40.97222222222223,15.333333333333332,66.66666666666667,12C92.36111111111111,8.666666666666668,105.55555555555557,-6.833333333333333,133.33333333333334,-6C161.11111111111111,-5.166666666666667,172.22222222222223,15.166666666666666,200,16C227.77777777777777,16.833333333333332,238.8888888888889,-2.833333333333333,266.6666666666667,-2C294.44444444444446,-1.1666666666666667,305.5555555555556,19.166666666666668,333.33333333333337,20C361.11111111111114,20.833333333333332,372.22222222222223,1.1666666666666667,400,2C427.77777777777777,2.833333333333333,438.8888888888889,23.166666666666668,466.6666666666667,24C494.44444444444446,24.833333333333332,505.5555555555556,5.166666666666667,533.3333333333334,6C561.1111111111111,6.833333333333333,572.2222222222222,27.166666666666668,600,28C627.7777777777778,28.833333333333332,638.8888888888889,9.166666666666666,666.6666666666667,10C694.4444444444446,10.833333333333334,707.6388888888889,32,733.3333333333334,32C759.0277777777778,32,778.1944444444445,14.583333333333332,790,10" transform="matrix(1,0,0,1,0,1260)"></path><path d="M10,10C21.805555555555557,10.416666666666666,40.97222222222223,15.333333333333332,66.66666666666667,12C92.36111111111111,8.666666666666668,105.55555555555557,-6.833333333333333,133.33333333333334,-6C161.11111111111111,-5.166666666666667,172.22222222222223,15.166666666666666,200,16C227.77777777777777,16.833333333333332,238.8888888888889,-2.833333333333333,266.6666666666667,-2C294.44444444444446,-1.1666666666666667,305.5555555555556,19.166666666666668,333.33333333333337,20C361.11111111111114,20.833333333333332,372.22222222222223,1.1666666666666667,400,2C427.77777777777777,2.833333333333333,438.8888888888889,23.166666666666668,466.6666666666667,24C494.44444444444446,24.833333333333332,505.5555555555556,5.166666666666667,533.3333333333334,6C561.1111111111111,6.833333333333333,572.2222222222222,27.166666666666668,600,28C627.7777777777778,28.833333333333332,638.8888888888889,9.166666666666666,666.6666666666667,10C694.4444444444446,10.833333333333334,707.6388888888889,32,733.3333333333334,32C759.0277777777778,32,778.1944444444445,14.583333333333332,790,10" transform="matrix(1,0,0,1,0,1225)"></path><path d="M10,10C21.805555555555557,10.416666666666666,40.97222222222223,15.333333333333332,66.66666666666667,12C92.36111111111111,8.666666666666668,105.55555555555557,-6.833333333333333,133.33333333333334,-6C161.11111111111111,-5.166666666666667,172.22222222222223,15.166666666666666,200,16C227.77777777777777,16.833333333333332,238.8888888888889,-2.833333333333333,266.6666666666667,-2C294.44444444444446,-1.1666666666666667,305.5555555555556,19.166666666666668,333.33333333333337,20C361.11111111111114,20.833333333333332,372.22222222222223,1.1666666666666667,400,2C427.77777777777777,2.833333333333333,438.8888888888889,23.166666666666668,466.6666666666667,24C494.44444444444446,24.833333333333332,505.5555555555556,5.166666666666667,533.3333333333334,6C561.1111111111111,6.833333333333333,572.2222222222222,27.166666666666668,600,28C627.7777777777778,28.833333333333332,638.8888888888889,9.166666666666666,666.6666666666667,10C694.4444444444446,10.833333333333334,707.6388888888889,32,733.3333333333334,32C759.0277777777778,32,778.1944444444445,14.583333333333332,790,10" transform="matrix(1,0,0,1,0,1190)"></path><path d="M10,10C21.805555555555557,10.416666666666666,40.97222222222223,15.333333333333332,66.66666666666667,12C92.36111111111111,8.666666666666668,105.55555555555557,-6.833333333333333,133.33333333333334,-6C161.11111111111111,-5.166666666666667,172.22222222222223,15.166666666666666,200,16C227.77777777777777,16.833333333333332,238.8888888888889,-2.833333333333333,266.6666666666667,-2C294.44444444444446,-1.1666666666666667,305.5555555555556,19.166666666666668,333.33333333333337,20C361.11111111111114,20.833333333333332,372.22222222222223,1.1666666666666667,400,2C427.77777777777777,2.833333333333333,438.8888888888889,23.166666666666668,466.6666666666667,24C494.44444444444446,24.833333333333332,505.5555555555556,5.166666666666667,533.3333333333334,6C561.1111111111111,6.833333333333333,572.2222222222222,27.166666666666668,600,28C627.7777777777778,28.833333333333332,638.8888888888889,9.166666666666666,666.6666666666667,10C694.4444444444446,10.833333333333334,707.6388888888889,32,733.3333333333334,32C759.0277777777778,32,778.1944444444445,14.583333333333332,790,10" transform="matrix(1,0,0,1,0,1155)"></path><path d="M10,10C21.805555555555557,10.416666666666666,40.97222222222223,15.333333333333332,66.66666666666667,12C92.36111111111111,8.666666666666668,105.55555555555557,-6.833333333333333,133.33333333333334,-6C161.11111111111111,-5.166666666666667,172.22222222222223,15.166666666666666,200,16C227.77777777777777,16.833333333333332,238.8888888888889,-2.833333333333333,266.6666666666667,-2C294.44444444444446,-1.1666666666666667,305.5555555555556,19.166666666666668,333.33333333333337,20C361.11111111111114,20.833333333333332,372.22222222222223,1.1666666666666667,400,2C427.77777777777777,2.833333333333333,438.8888888888889,23.166666666666668,466.6666666666667,24C494.44444444444446,24.833333333333332,505.5555555555556,5.166666666666667,533.3333333333334,6C561.1111111111111,6.833333333333333,572.2222222222222,27.166666666666668,600,28C627.7777777777778,28.833333333333332,638.8888888888889,9.166666666666666,666.6666666666667,10C694.4444444444446,10.833333333333334,707.6388888888889,32,733.3333333333334,32C759.0277777777778,32,778.1944444444445,14.583333333333332,790,10" transform="matrix(1,0,0,1,0,1120)"></path><path d="M10,10C21.805555555555557,10.416666666666666,40.97222222222223,15.333333333333332,66.66666666666667,12C92.36111111111111,8.666666666666668,105.55555555555557,-6.833333333333333,133.33333333333334,-6C161.11111111111111,-5.166666666666667,172.22222222222223,15.166666666666666,200,16C227.77777777777777,16.833333333333332,238.8888888888889,-2.833333333333333,266.6666666666667,-2C294.44444444444446,-1.1666666666666667,305.5555555555556,19.166666666666668,333.33333333333337,20C361.11111111111114,20.833333333333332,372.22222222222223,1.1666666666666667,400,2C427.77777777777777,2.833333333333333,438.8888888888889,23.166666666666668,466.6666666666667,24C494.44444444444446,24.833333333333332,505.5555555555556,5.166666666666667,533.3333333333334,6C561.1111111111111,6.833333333333333,572.2222222222222,27.166666666666668,600,28C627.7777777777778,28.833333333333332,638.8888888888889,9.166666666666666,666.6666666666667,10C694.4444444444446,10.833333333333334,707.6388888888889,32,733.3333333333334,32C759.0277777777778,32,778.1944444444445,14.583333333333332,790,10" transform="matrix(1,0,0,1,0,1085)"></path><path d="M10,10C21.805555555555557,10.416666666666666,40.97222222222223,15.333333333333332,66.66666666666667,12C92.36111111111111,8.666666666666668,105.55555555555557,-6.833333333333333,133.33333333333334,-6C161.11111111111111,-5.166666666666667,172.22222222222223,15.166666666666666,200,16C227.77777777777777,16.833333333333332,238.8888888888889,-2.833333333333333,266.6666666666667,-2C294.44444444444446,-1.1666666666666667,305.5555555555556,19.166666666666668,333.33333333333337,20C361.11111111111114,20.833333333333332,372.22222222222223,1.1666666666666667,400,2C427.77777777777777,2.833333333333333,438.8888888888889,23.166666666666668,466.6666666666667,24C494.44444444444446,24.833333333333332,505.5555555555556,5.166666666666667,533.3333333333334,6C561.1111111111111,6.833333333333333,572.2222222222222,27.166666666666668,600,28C627.7777777777778,28.833333333333332,638.8888888888889,9.166666666666666,666.6666666666667,10C694.4444444444446,10.833333333333334,707.6388888888889,32,733.3333333333334,32C759.0277777777778,32,778.1944444444445,14.583333333333332,790,10" transform="matrix(1,0,0,1,0,1050)"></path><path d="M10,10C21.805555555555557,10.416666666666666,40.97222222222223,15.333333333333332,66.66666666666667,12C92.36111111111111,8.666666666666668,105.55555555555557,-6.833333333333333,133.33333333333334,-6C161.11111111111111,-5.166666666666667,172.22222222222223,15.166666666666666,200,16C227.77777777777777,16.833333333333332,238.8888888888889,-2.833333333333333,266.6666666666667,-2C294.44444444444446,-1.1666666666666667,305.5555555555556,19.166666666666668,333.33333333333337,20C361.11111111111114,20.833333333333332,372.22222222222223,1.1666666666666667,400,2C427.77777777777777,2.833333333333333,438.8888888888889,23.166666666666668,466.6666666666667,24C494.44444444444446,24.833333333333332,505.5555555555556,5.166666666666667,533.3333333333334,6C561.1111111111111,6.833333333333333,572.2222222222222,27.166666666666668,600,28C627.7777777777778,28.833333333333332,638.8888888888889,9.166666666666666,666.6666666666667,10C694.4444444444446,10.833333333333334,707.6388888888889,32,733.3333333333334,32C759.0277777777778,32,778.1944444444445,14.583333333333332,790,10" transform="matrix(1,0,0,1,0,1015)"></path><path d="M10,10C21.805555555555557,10.416666666666666,40.97222222222223,15.333333333333332,66.66666666666667,12C92.36111111111111,8.666666666666668,105.55555555555557,-6.833333333333333,133.33333333333334,-6C161.11111111111111,-5.166666666666667,172.22222222222223,15.166666666666666,200,16C227.77777777777777,16.833333333333332,238.8888888888889,-2.833333333333333,266.6666666666667,-2C294.44444444444446,-1.1666666666666667,305.5555555555556,19.166666666666668,333.33333333333337,20C361.11111111111114,20.833333333333332,372.22222222222223,1.1666666666666667,400,2C427.77777777777777,2.833333333333333,438.8888888888889,23.166666666666668,466.6666666666667,24C494.44444444444446,24.833333333333332,505.5555555555556,5.166666666666667,533.3333333333334,6C561.1111111111111,6.833333333333333,572.2222222222222,27.166666666666668,600,28C627.7777777777778,28.833333333333332,638.8888888888889,9.166666666666666,666.6666666666667,10C694.4444444444446,10.833333333333334,707.6388888888889,32,733.3333333333334,32C759.0277777777778,32,778.1944444444445,14.583333333333332,790,10" transform="matrix(1,0,0,1,0,980)"></path><path d="M10,10C21.805555555555557,10.416666666666666,40.97222222222223,15.333333333333332,66.66666666666667,12C92.36111111111111,8.666666666666668,105.55555555555557,-6.833333333333333,133.33333333333334,-6C161.11111111111111,-5.166666666666667,172.22222222222223,15.166666666666666,200,16C227.77777777777777,16.833333333333332,238.8888888888889,-2.833333333333333,266.6666666666667,-2C294.44444444444446,-1.1666666666666667,305.5555555555556,19.166666666666668,333.33333333333337,20C361.11111111111114,20.833333333333332,372.22222222222223,1.1666666666666667,400,2C427.77777777777777,2.833333333333333,438.8888888888889,23.166666666666668,466.6666666666667,24C494.44444444444446,24.833333333333332,505.5555555555556,5.166666666666667,533.3333333333334,6C561.1111111111111,6.833333333333333,572.2222222222222,27.166666666666668,600,28C627.7777777777778,28.833333333333332,638.8888888888889,9.166666666666666,666.6666666666667,10C694.4444444444446,10.833333333333334,707.6388888888889,32,733.3333333333334,32C759.0277777777778,32,778.1944444444445,14.583333333333332,790,10" transform="matrix(1,0,0,1,0,945)"></path><path d="M10,10C21.805555555555557,10.416666666666666,40.97222222222223,15.333333333333332,66.66666666666667,12C92.36111111111111,8.666666666666668,105.55555555555557,-6.833333333333333,133.33333333333334,-6C161.11111111111111,-5.166666666666667,172.22222222222223,15.166666666666666,200,16C227.77777777777777,16.833333333333332,238.8888888888889,-2.833333333333333,266.6666666666667,-2C294.44444444444446,-1.1666666666666667,305.5555555555556,19.166666666666668,333.33333333333337,20C361.11111111111114,20.833333333333332,372.22222222222223,1.1666666666666667,400,2C427.77777777777777,2.833333333333333,438.8888888888889,23.166666666666668,466.6666666666667,24C494.44444444444446,24.833333333333332,505.5555555555556,5.166666666666667,533.3333333333334,6C561.1111111111111,6.833333333333333,572.2222222222222,27.166666666666668,600,28C627.7777777777778,28.833333333333332,638.8888888888889,9.166666666666666,666.6666666666667,10C694.4444444444446,10.833333333333334,707.6388888888889,32,733.3333333333334,32C759.0277777777778,32,778.1944444444445,14.583333333333332,790,10" transform="matrix(1,0,0,1,0,910)"></path><path d="M10,10C21.805555555555557,10.416666666666666,40.97222222222223,15.333333333333332,66.66666666666667,12C92.36111111111111,8.666666666666668,105.55555555555557,-6.833333333333333,133.33333333333334,-6C161.11111111111111,-5.166666666666667,172.22222222222223,15.166666666666666,200,16C227.77777777777777,16.833333333333332,238.8888888888889,-2.833333333333333,266.6666666666667,-2C294.44444444444446,-1.1666666666666667,305.5555555555556,19.166666666666668,333.33333333333337,20C361.11111111111114,20.833333333333332,372.22222222222223,1.1666666666666667,400,2C427.77777777777777,2.833333333333333,438.8888888888889,23.166666666666668,466.6666666666667,24C494.44444444444446,24.833333333333332,505.5555555555556,5.166666666666667,533.3333333333334,6C561.1111111111111,6.833333333333333,572.2222222222222,27.166666666666668,600,28C627.7777777777778,28.833333333333332,638.8888888888889,9.166666666666666,666.6666666666667,10C694.4444444444446,10.833333333333334,707.6388888888889,32,733.3333333333334,32C759.0277777777778,32,778.1944444444445,14.583333333333332,790,10" transform="matrix(1,0,0,1,0,875)"></path><path d="M10,10C21.805555555555557,10.416666666666666,40.97222222222223,15.333333333333332,66.66666666666667,12C92.36111111111111,8.666666666666668,105.55555555555557,-6.833333333333333,133.33333333333334,-6C161.11111111111111,-5.166666666666667,172.22222222222223,15.166666666666666,200,16C227.77777777777777,16.833333333333332,238.8888888888889,-2.833333333333333,266.6666666666667,-2C294.44444444444446,-1.1666666666666667,305.5555555555556,19.166666666666668,333.33333333333337,20C361.11111111111114,20.833333333333332,372.22222222222223,1.1666666666666667,400,2C427.77777777777777,2.833333333333333,438.8888888888889,23.166666666666668,466.6666666666667,24C494.44444444444446,24.833333333333332,505.5555555555556,5.166666666666667,533.3333333333334,6C561.1111111111111,6.833333333333333,572.2222222222222,27.166666666666668,600,28C627.7777777777778,28.833333333333332,638.8888888888889,9.166666666666666,666.6666666666667,10C694.4444444444446,10.833333333333334,707.6388888888889,32,733.3333333333334,32C759.0277777777778,32,778.1944444444445,14.583333333333332,790,10" transform="matrix(1,0,0,1,0,840)"></path><path d="M10,10C21.805555555555557,10.416666666666666,40.97222222222223,15.333333333333332,66.66666666666667,12C92.36111111111111,8.666666666666668,105.55555555555557,-6.833333333333333,133.33333333333334,-6C161.11111111111111,-5.166666666666667,172.22222222222223,15.166666666666666,200,16C227.77777777777777,16.833333333333332,238.8888888888889,-2.833333333333333,266.6666666666667,-2C294.44444444444446,-1.1666666666666667,305.5555555555556,19.166666666666668,333.33333333333337,20C361.11111111111114,20.833333333333332,372.22222222222223,1.1666666666666667,400,2C427.77777777777777,2.833333333333333,438.8888888888889,23.166666666666668,466.6666666666667,24C494.44444444444446,24.833333333333332,505.5555555555556,5.166666666666667,533.3333333333334,6C561.1111111111111,6.833333333333333,572.2222222222222,27.166666666666668,600,28C627.7777777777778,28.833333333333332,638.8888888888889,9.166666666666666,666.6666666666667,10C694.4444444444446,10.833333333333334,707.6388888888889,32,733.3333333333334,32C759.0277777777778,32,778.1944444444445,14.583333333333332,790,10" transform="matrix(1,0,0,1,0,805)"></path><path d="M10,10C21.805555555555557,10.416666666666666,40.97222222222223,15.333333333333332,66.66666666666667,12C92.36111111111111,8.666666666666668,105.55555555555557,-6.833333333333333,133.33333333333334,-6C161.11111111111111,-5.166666666666667,172.22222222222223,15.166666666666666,200,16C227.77777777777777,16.833333333333332,238.8888888888889,-2.833333333333333,266.6666666666667,-2C294.44444444444446,-1.1666666666666667,305.5555555555556,19.166666666666668,333.33333333333337,20C361.11111111111114,20.833333333333332,372.22222222222223,1.1666666666666667,400,2C427.77777777777777,2.833333333333333,438.8888888888889,23.166666666666668,466.6666666666667,24C494.44444444444446,24.833333333333332,505.5555555555556,5.166666666666667,533.3333333333334,6C561.1111111111111,6.833333333333333,572.2222222222222,27.166666666666668,600,28C627.7777777777778,28.833333333333332,638.8888888888889,9.166666666666666,666.6666666666667,10C694.4444444444446,10.833333333333334,707.6388888888889,32,733.3333333333334,32C759.0277777777778,32,778.1944444444445,14.583333333333332,790,10" transform="matrix(1,0,0,1,0,770)"></path><path d="M10,10C21.805555555555557,10.416666666666666,40.97222222222223,15.333333333333332,66.66666666666667,12C92.36111111111111,8.666666666666668,105.55555555555557,-6.833333333333333,133.33333333333334,-6C161.11111111111111,-5.166666666666667,172.22222222222223,15.166666666666666,200,16C227.77777777777777,16.833333333333332,238.8888888888889,-2.833333333333333,266.6666666666667,-2C294.44444444444446,-1.1666666666666667,305.5555555555556,19.166666666666668,333.33333333333337,20C361.11111111111114,20.833333333333332,372.22222222222223,1.1666666666666667,400,2C427.77777777777777,2.833333333333333,438.8888888888889,23.166666666666668,466.6666666666667,24C494.44444444444446,24.833333333333332,505.5555555555556,5.166666666666667,533.3333333333334,6C561.1111111111111,6.833333333333333,572.2222222222222,27.166666666666668,600,28C627.7777777777778,28.833333333333332,638.8888888888889,9.166666666666666,666.6666666666667,10C694.4444444444446,10.833333333333334,707.6388888888889,32,733.3333333333334,32C759.0277777777778,32,778.1944444444445,14.583333333333332,790,10" transform="matrix(1,0,0,1,0,735)"></path><path d="M10,10C21.805555555555557,10.416666666666666,40.97222222222223,15.333333333333332,66.66666666666667,12C92.36111111111111,8.666666666666668,105.55555555555557,-6.833333333333333,133.33333333333334,-6C161.11111111111111,-5.166666666666667,172.22222222222223,15.166666666666666,200,16C227.77777777777777,16.833333333333332,238.8888888888889,-2.833333333333333,266.6666666666667,-2C294.44444444444446,-1.1666666666666667,305.5555555555556,19.166666666666668,333.33333333333337,20C361.11111111111114,20.833333333333332,372.22222222222223,1.1666666666666667,400,2C427.77777777777777,2.833333333333333,438.8888888888889,23.166666666666668,466.6666666666667,24C494.44444444444446,24.833333333333332,505.5555555555556,5.166666666666667,533.3333333333334,6C561.1111111111111,6.833333333333333,572.2222222222222,27.166666666666668,600,28C627.7777777777778,28.833333333333332,638.8888888888889,9.166666666666666,666.6666666666667,10C694.4444444444446,10.833333333333334,707.6388888888889,32,733.3333333333334,32C759.0277777777778,32,778.1944444444445,14.583333333333332,790,10" transform="matrix(1,0,0,1,0,700)"></path><path d="M10,10C21.805555555555557,10.416666666666666,40.97222222222223,15.333333333333332,66.66666666666667,12C92.36111111111111,8.666666666666668,105.55555555555557,-6.833333333333333,133.33333333333334,-6C161.11111111111111,-5.166666666666667,172.22222222222223,15.166666666666666,200,16C227.77777777777777,16.833333333333332,238.8888888888889,-2.833333333333333,266.6666666666667,-2C294.44444444444446,-1.1666666666666667,305.5555555555556,19.166666666666668,333.33333333333337,20C361.11111111111114,20.833333333333332,372.22222222222223,1.1666666666666667,400,2C427.77777777777777,2.833333333333333,438.8888888888889,23.166666666666668,466.6666666666667,24C494.44444444444446,24.833333333333332,505.5555555555556,5.166666666666667,533.3333333333334,6C561.1111111111111,6.833333333333333,572.2222222222222,27.166666666666668,600,28C627.7777777777778,28.833333333333332,638.8888888888889,9.166666666666666,666.6666666666667,10C694.4444444444446,10.833333333333334,707.6388888888889,32,733.3333333333334,32C759.0277777777778,32,778.1944444444445,14.583333333333332,790,10" transform="matrix(1,0,0,1,0,665)"></path><path d="M10,10C21.805555555555557,10.416666666666666,40.97222222222223,15.333333333333332,66.66666666666667,12C92.36111111111111,8.666666666666668,105.55555555555557,-6.833333333333333,133.33333333333334,-6C161.11111111111111,-5.166666666666667,172.22222222222223,15.166666666666666,200,16C227.77777777777777,16.833333333333332,238.8888888888889,-2.833333333333333,266.6666666666667,-2C294.44444444444446,-1.1666666666666667,305.5555555555556,19.166666666666668,333.33333333333337,20C361.11111111111114,20.833333333333332,372.22222222222223,1.1666666666666667,400,2C427.77777777777777,2.833333333333333,438.8888888888889,23.166666666666668,466.6666666666667,24C494.44444444444446,24.833333333333332,505.5555555555556,5.166666666666667,533.3333333333334,6C561.1111111111111,6.833333333333333,572.2222222222222,27.166666666666668,600,28C627.7777777777778,28.833333333333332,638.8888888888889,9.166666666666666,666.6666666666667,10C694.4444444444446,10.833333333333334,707.6388888888889,32,733.3333333333334,32C759.0277777777778,32,778.1944444444445,14.583333333333332,790,10" transform="matrix(1,0,0,1,0,630)"></path><path d="M10,10C21.805555555555557,10.416666666666666,40.97222222222223,15.333333333333332,66.66666666666667,12C92.36111111111111,8.666666666666668,105.55555555555557,-6.833333333333333,133.33333333333334,-6C161.11111111111111,-5.166666666666667,172.22222222222223,15.166666666666666,200,16C227.77777777777777,16.833333333333332,238.8888888888889,-2.833333333333333,266.6666666666667,-2C294.44444444444446,-1.1666666666666667,305.5555555555556,19.166666666666668,333.33333333333337,20C361.11111111111114,20.833333333333332,372.22222222222223,1.1666666666666667,400,2C427.77777777777777,2.833333333333333,438.8888888888889,23.166666666666668,466.6666666666667,24C494.44444444444446,24.833333333333332,505.5555555555556,5.166666666666667,533.3333333333334,6C561.1111111111111,6.833333333333333,572.2222222222222,27.166666666666668,600,28C627.7777777777778,28.833333333333332,638.8888888888889,9.166666666666666,666.6666666666667,10C694.4444444444446,10.833333333333334,707.6388888888889,32,733.3333333333334,32C759.0277777777778,32,778.1944444444445,14.583333333333332,790,10" transform="matrix(1,0,0,1,0,595)"></path><path d="M10,10C21.805555555555557,10.416666666666666,40.97222222222223,15.333333333333332,66.66666666666667,12C92.36111111111111,8.666666666666668,105.55555555555557,-6.833333333333333,133.33333333333334,-6C161.11111111111111,-5.166666666666667,172.22222222222223,15.166666666666666,200,16C227.77777777777777,16.833333333333332,238.8888888888889,-2.833333333333333,266.6666666666667,-2C294.44444444444446,-1.1666666666666667,305.5555555555556,19.166666666666668,333.33333333333337,20C361.11111111111114,20.833333333333332,372.22222222222223,1.1666666666666667,400,2C427.77777777777777,2.833333333333333,438.8888888888889,23.166666666666668,466.6666666666667,24C494.44444444444446,24.833333333333332,505.5555555555556,5.166666666666667,533.3333333333334,6C561.1111111111111,6.833333333333333,572.2222222222222,27.166666666666668,600,28C627.7777777777778,28.833333333333332,638.8888888888889,9.166666666666666,666.6666666666667,10C694.4444444444446,10.833333333333334,707.6388888888889,32,733.3333333333334,32C759.0277777777778,32,778.1944444444445,14.583333333333332,790,10" transform="matrix(1,0,0,1,0,560)"></path><path d="M10,10C21.805555555555557,10.416666666666666,40.97222222222223,15.333333333333332,66.66666666666667,12C92.36111111111111,8.666666666666668,105.55555555555557,-6.833333333333333,133.33333333333334,-6C161.11111111111111,-5.166666666666667,172.22222222222223,15.166666666666666,200,16C227.77777777777777,16.833333333333332,238.8888888888889,-2.833333333333333,266.6666666666667,-2C294.44444444444446,-1.1666666666666667,305.5555555555556,19.166666666666668,333.33333333333337,20C361.11111111111114,20.833333333333332,372.22222222222223,1.1666666666666667,400,2C427.77777777777777,2.833333333333333,438.8888888888889,23.166666666666668,466.6666666666667,24C494.44444444444446,24.833333333333332,505.5555555555556,5.166666666666667,533.3333333333334,6C561.1111111111111,6.833333333333333,572.2222222222222,27.166666666666668,600,28C627.7777777777778,28.833333333333332,638.8888888888889,9.166666666666666,666.6666666666667,10C694.4444444444446,10.833333333333334,707.6388888888889,32,733.3333333333334,32C759.0277777777778,32,778.1944444444445,14.583333333333332,790,10" transform="matrix(1,0,0,1,0,525)"></path><path d="M10,10C21.805555555555557,10.416666666666666,40.97222222222223,15.333333333333332,66.66666666666667,12C92.36111111111111,8.666666666666668,105.55555555555557,-6.833333333333333,133.33333333333334,-6C161.11111111111111,-5.166666666666667,172.22222222222223,15.166666666666666,200,16C227.77777777777777,16.833333333333332,238.8888888888889,-2.833333333333333,266.6666666666667,-2C294.44444444444446,-1.1666666666666667,305.5555555555556,19.166666666666668,333.33333333333337,20C361.11111111111114,20.833333333333332,372.22222222222223,1.1666666666666667,400,2C427.77777777777777,2.833333333333333,438.8888888888889,23.166666666666668,466.6666666666667,24C494.44444444444446,24.833333333333332,505.5555555555556,5.166666666666667,533.3333333333334,6C561.1111111111111,6.833333333333333,572.2222222222222,27.166666666666668,600,28C627.7777777777778,28.833333333333332,638.8888888888889,9.166666666666666,666.6666666666667,10C694.4444444444446,10.833333333333334,707.6388888888889,32,733.3333333333334,32C759.0277777777778,32,778.1944444444445,14.583333333333332,790,10" transform="matrix(1,0,0,1,0,490)"></path><path d="M10,10C21.805555555555557,10.416666666666666,40.97222222222223,15.333333333333332,66.66666666666667,12C92.36111111111111,8.666666666666668,105.55555555555557,-6.833333333333333,133.33333333333334,-6C161.11111111111111,-5.166666666666667,172.22222222222223,15.166666666666666,200,16C227.77777777777777,16.833333333333332,238.8888888888889,-2.833333333333333,266.6666666666667,-2C294.44444444444446,-1.1666666666666667,305.5555555555556,19.166666666666668,333.33333333333337,20C361.11111111111114,20.833333333333332,372.22222222222223,1.1666666666666667,400,2C427.77777777777777,2.833333333333333,438.8888888888889,23.166666666666668,466.6666666666667,24C494.44444444444446,24.833333333333332,505.5555555555556,5.166666666666667,533.3333333333334,6C561.1111111111111,6.833333333333333,572.2222222222222,27.166666666666668,600,28C627.7777777777778,28.833333333333332,638.8888888888889,9.166666666666666,666.6666666666667,10C694.4444444444446,10.833333333333334,707.6388888888889,32,733.3333333333334,32C759.0277777777778,32,778.1944444444445,14.583333333333332,790,10" transform="matrix(1,0,0,1,0,455)"></path><path d="M10,10C21.805555555555557,10.416666666666666,40.97222222222223,15.333333333333332,66.66666666666667,12C92.36111111111111,8.666666666666668,105.55555555555557,-6.833333333333333,133.33333333333334,-6C161.11111111111111,-5.166666666666667,172.22222222222223,15.166666666666666,200,16C227.77777777777777,16.833333333333332,238.8888888888889,-2.833333333333333,266.6666666666667,-2C294.44444444444446,-1.1666666666666667,305.5555555555556,19.166666666666668,333.33333333333337,20C361.11111111111114,20.833333333333332,372.22222222222223,1.1666666666666667,400,2C427.77777777777777,2.833333333333333,438.8888888888889,23.166666666666668,466.6666666666667,24C494.44444444444446,24.833333333333332,505.5555555555556,5.166666666666667,533.3333333333334,6C561.1111111111111,6.833333333333333,572.2222222222222,27.166666666666668,600,28C627.7777777777778,28.833333333333332,638.8888888888889,9.166666666666666,666.6666666666667,10C694.4444444444446,10.833333333333334,707.6388888888889,32,733.3333333333334,32C759.0277777777778,32,778.1944444444445,14.583333333333332,790,10" transform="matrix(1,0,0,1,0,420)"></path><path d="M10,10C21.805555555555557,10.416666666666666,40.97222222222223,15.333333333333332,66.66666666666667,12C92.36111111111111,8.666666666666668,105.55555555555557,-6.833333333333333,133.33333333333334,-6C161.11111111111111,-5.166666666666667,172.22222222222223,15.166666666666666,200,16C227.77777777777777,16.833333333333332,238.8888888888889,-2.833333333333333,266.6666666666667,-2C294.44444444444446,-1.1666666666666667,305.5555555555556,19.166666666666668,333.33333333333337,20C361.11111111111114,20.833333333333332,372.22222222222223,1.1666666666666667,400,2C427.77777777777777,2.833333333333333,438.8888888888889,23.166666666666668,466.6666666666667,24C494.44444444444446,24.833333333333332,505.5555555555556,5.166666666666667,533.3333333333334,6C561.1111111111111,6.833333333333333,572.2222222222222,27.166666666666668,600,28C627.7777777777778,28.833333333333332,638.8888888888889,9.166666666666666,666.6666666666667,10C694.4444444444446,10.833333333333334,707.6388888888889,32,733.3333333333334,32C759.0277777777778,32,778.1944444444445,14.583333333333332,790,10" transform="matrix(1,0,0,1,0,385)"></path><path d="M10,10C21.805555555555557,10.416666666666666,40.97222222222223,15.333333333333332,66.66666666666667,12C92.36111111111111,8.666666666666668,105.55555555555557,-6.833333333333333,133.33333333333334,-6C161.11111111111111,-5.166666666666667,172.22222222222223,15.166666666666666,200,16C227.77777777777777,16.833333333333332,238.8888888888889,-2.833333333333333,266.6666666666667,-2C294.44444444444446,-1.1666666666666667,305.5555555555556,19.166666666666668,333.33333333333337,20C361.11111111111114,20.833333333333332,372.22222222222223,1.1666666666666667,400,2C427.77777777777777,2.833333333333333,438.8888888888889,23.166666666666668,466.6666666666667,24C494.44444444444446,24.833333333333332,505.5555555555556,5.166666666666667,533.3333333333334,6C561.1111111111111,6.833333333333333,572.2222222222222,27.166666666666668,600,28C627.7777777777778,28.833333333333332,638.8888888888889,9.166666666666666,666.6666666666667,10C694.4444444444446,10.833333333333334,707.6388888888889,32,733.3333333333334,32C759.0277777777778,32,778.1944444444445,14.583333333333332,790,10" transform="matrix(1,0,0,1,0,350)"></path><path d="M10,10C21.805555555555557,10.416666666666666,40.97222222222223,15.333333333333332,66.66666666666667,12C92.36111111111111,8.666666666666668,105.55555555555557,-6.833333333333333,133.33333333333334,-6C161.11111111111111,-5.166666666666667,172.22222222222223,15.166666666666666,200,16C227.77777777777777,16.833333333333332,238.8888888888889,-2.833333333333333,266.6666666666667,-2C294.44444444444446,-1.1666666666666667,305.5555555555556,19.166666666666668,333.33333333333337,20C361.11111111111114,20.833333333333332,372.22222222222223,1.1666666666666667,400,2C427.77777777777777,2.833333333333333,438.8888888888889,23.166666666666668,466.6666666666667,24C494.44444444444446,24.833333333333332,505.5555555555556,5.166666666666667,533.3333333333334,6C561.1111111111111,6.833333333333333,572.2222222222222,27.166666666666668,600,28C627.7777777777778,28.833333333333332,638.8888888888889,9.166666666666666,666.6666666666667,10C694.4444444444446,10.833333333333334,707.6388888888889,32,733.3333333333334,32C759.0277777777778,32,778.1944444444445,14.583333333333332,790,10" transform="matrix(1,0,0,1,0,315)"></path><path d="M10,10C21.805555555555557,10.416666666666666,40.97222222222223,15.333333333333332,66.66666666666667,12C92.36111111111111,8.666666666666668,105.55555555555557,-6.833333333333333,133.33333333333334,-6C161.11111111111111,-5.166666666666667,172.22222222222223,15.166666666666666,200,16C227.77777777777777,16.833333333333332,238.8888888888889,-2.833333333333333,266.6666666666667,-2C294.44444444444446,-1.1666666666666667,305.5555555555556,19.166666666666668,333.33333333333337,20C361.11111111111114,20.833333333333332,372.22222222222223,1.1666666666666667,400,2C427.77777777777777,2.833333333333333,438.8888888888889,23.166666666666668,466.6666666666667,24C494.44444444444446,24.833333333333332,505.5555555555556,5.166666666666667,533.3333333333334,6C561.1111111111111,6.833333333333333,572.2222222222222,27.166666666666668,600,28C627.7777777777778,28.833333333333332,638.8888888888889,9.166666666666666,666.6666666666667,10C694.4444444444446,10.833333333333334,707.6388888888889,32,733.3333333333334,32C759.0277777777778,32,778.1944444444445,14.583333333333332,790,10" transform="matrix(1,0,0,1,0,280)"></path><path d="M10,10C21.805555555555557,10.416666666666666,40.97222222222223,15.333333333333332,66.66666666666667,12C92.36111111111111,8.666666666666668,105.55555555555557,-6.833333333333333,133.33333333333334,-6C161.11111111111111,-5.166666666666667,172.22222222222223,15.166666666666666,200,16C227.77777777777777,16.833333333333332,238.8888888888889,-2.833333333333333,266.6666666666667,-2C294.44444444444446,-1.1666666666666667,305.5555555555556,19.166666666666668,333.33333333333337,20C361.11111111111114,20.833333333333332,372.22222222222223,1.1666666666666667,400,2C427.77777777777777,2.833333333333333,438.8888888888889,23.166666666666668,466.6666666666667,24C494.44444444444446,24.833333333333332,505.5555555555556,5.166666666666667,533.3333333333334,6C561.1111111111111,6.833333333333333,572.2222222222222,27.166666666666668,600,28C627.7777777777778,28.833333333333332,638.8888888888889,9.166666666666666,666.6666666666667,10C694.4444444444446,10.833333333333334,707.6388888888889,32,733.3333333333334,32C759.0277777777778,32,778.1944444444445,14.583333333333332,790,10" transform="matrix(1,0,0,1,0,245)"></path><path d="M10,10C21.805555555555557,10.416666666666666,40.97222222222223,15.333333333333332,66.66666666666667,12C92.36111111111111,8.666666666666668,105.55555555555557,-6.833333333333333,133.33333333333334,-6C161.11111111111111,-5.166666666666667,172.22222222222223,15.166666666666666,200,16C227.77777777777777,16.833333333333332,238.8888888888889,-2.833333333333333,266.6666666666667,-2C294.44444444444446,-1.1666666666666667,305.5555555555556,19.166666666666668,333.33333333333337,20C361.11111111111114,20.833333333333332,372.22222222222223,1.1666666666666667,400,2C427.77777777777777,2.833333333333333,438.8888888888889,23.166666666666668,466.6666666666667,24C494.44444444444446,24.833333333333332,505.5555555555556,5.166666666666667,533.3333333333334,6C561.1111111111111,6.833333333333333,572.2222222222222,27.166666666666668,600,28C627.7777777777778,28.833333333333332,638.8888888888889,9.166666666666666,666.6666666666667,10C694.4444444444446,10.833333333333334,707.6388888888889,32,733.3333333333334,32C759.0277777777778,32,778.1944444444445,14.583333333333332,790,10" transform="matrix(1,0,0,1,0,210)"></path><path d="M10,10C21.805555555555557,10.416666666666666,40.97222222222223,15.333333333333332,66.66666666666667,12C92.36111111111111,8.666666666666668,105.55555555555557,-6.833333333333333,133.33333333333334,-6C161.11111111111111,-5.166666666666667,172.22222222222223,15.166666666666666,200,16C227.77777777777777,16.833333333333332,238.8888888888889,-2.833333333333333,266.6666666666667,-2C294.44444444444446,-1.1666666666666667,305.5555555555556,19.166666666666668,333.33333333333337,20C361.11111111111114,20.833333333333332,372.22222222222223,1.1666666666666667,400,2C427.77777777777777,2.833333333333333,438.8888888888889,23.166666666666668,466.6666666666667,24C494.44444444444446,24.833333333333332,505.5555555555556,5.166666666666667,533.3333333333334,6C561.1111111111111,6.833333333333333,572.2222222222222,27.166666666666668,600,28C627.7777777777778,28.833333333333332,638.8888888888889,9.166666666666666,666.6666666666667,10C694.4444444444446,10.833333333333334,707.6388888888889,32,733.3333333333334,32C759.0277777777778,32,778.1944444444445,14.583333333333332,790,10" transform="matrix(1,0,0,1,0,175)"></path><path d="M10,10C21.805555555555557,10.416666666666666,40.97222222222223,15.333333333333332,66.66666666666667,12C92.36111111111111,8.666666666666668,105.55555555555557,-6.833333333333333,133.33333333333334,-6C161.11111111111111,-5.166666666666667,172.22222222222223,15.166666666666666,200,16C227.77777777777777,16.833333333333332,238.8888888888889,-2.833333333333333,266.6666666666667,-2C294.44444444444446,-1.1666666666666667,305.5555555555556,19.166666666666668,333.33333333333337,20C361.11111111111114,20.833333333333332,372.22222222222223,1.1666666666666667,400,2C427.77777777777777,2.833333333333333,438.8888888888889,23.166666666666668,466.6666666666667,24C494.44444444444446,24.833333333333332,505.5555555555556,5.166666666666667,533.3333333333334,6C561.1111111111111,6.833333333333333,572.2222222222222,27.166666666666668,600,28C627.7777777777778,28.833333333333332,638.8888888888889,9.166666666666666,666.6666666666667,10C694.4444444444446,10.833333333333334,707.6388888888889,32,733.3333333333334,32C759.0277777777778,32,778.1944444444445,14.583333333333332,790,10" transform="matrix(1,0,0,1,0,140)"></path><path d="M10,10C21.805555555555557,10.416666666666666,40.97222222222223,15.333333333333332,66.66666666666667,12C92.36111111111111,8.666666666666668,105.55555555555557,-6.833333333333333,133.33333333333334,-6C161.11111111111111,-5.166666666666667,172.22222222222223,15.166666666666666,200,16C227.77777777777777,16.833333333333332,238.8888888888889,-2.833333333333333,266.6666666666667,-2C294.44444444444446,-1.1666666666666667,305.5555555555556,19.166666666666668,333.33333333333337,20C361.11111111111114,20.833333333333332,372.22222222222223,1.1666666666666667,400,2C427.77777777777777,2.833333333333333,438.8888888888889,23.166666666666668,466.6666666666667,24C494.44444444444446,24.833333333333332,505.5555555555556,5.166666666666667,533.3333333333334,6C561.1111111111111,6.833333333333333,572.2222222222222,27.166666666666668,600,28C627.7777777777778,28.833333333333332,638.8888888888889,9.166666666666666,666.6666666666667,10C694.4444444444446,10.833333333333334,707.6388888888889,32,733.3333333333334,32C759.0277777777778,32,778.1944444444445,14.583333333333332,790,10" transform="matrix(1,0,0,1,0,105)"></path><path d="M10,10C21.805555555555557,10.416666666666666,40.97222222222223,15.333333333333332,66.66666666666667,12C92.36111111111111,8.666666666666668,105.55555555555557,-6.833333333333333,133.33333333333334,-6C161.11111111111111,-5.166666666666667,172.22222222222223,15.166666666666666,200,16C227.77777777777777,16.833333333333332,238.8888888888889,-2.833333333333333,266.6666666666667,-2C294.44444444444446,-1.1666666666666667,305.5555555555556,19.166666666666668,333.33333333333337,20C361.11111111111114,20.833333333333332,372.22222222222223,1.1666666666666667,400,2C427.77777777777777,2.833333333333333,438.8888888888889,23.166666666666668,466.6666666666667,24C494.44444444444446,24.833333333333332,505.5555555555556,5.166666666666667,533.3333333333334,6C561.1111111111111,6.833333333333333,572.2222222222222,27.166666666666668,600,28C627.7777777777778,28.833333333333332,638.8888888888889,9.166666666666666,666.6666666666667,10C694.4444444444446,10.833333333333334,707.6388888888889,32,733.3333333333334,32C759.0277777777778,32,778.1944444444445,14.583333333333332,790,10" transform="matrix(1,0,0,1,0,70)"></path><path d="M10,10C21.805555555555557,10.416666666666666,40.97222222222223,15.333333333333332,66.66666666666667,12C92.36111111111111,8.666666666666668,105.55555555555557,-6.833333333333333,133.33333333333334,-6C161.11111111111111,-5.166666666666667,172.22222222222223,15.166666666666666,200,16C227.77777777777777,16.833333333333332,238.8888888888889,-2.833333333333333,266.6666666666667,-2C294.44444444444446,-1.1666666666666667,305.5555555555556,19.166666666666668,333.33333333333337,20C361.11111111111114,20.833333333333332,372.22222222222223,1.1666666666666667,400,2C427.77777777777777,2.833333333333333,438.8888888888889,23.166666666666668,466.6666666666667,24C494.44444444444446,24.833333333333332,505.5555555555556,5.166666666666667,533.3333333333334,6C561.1111111111111,6.833333333333333,572.2222222222222,27.166666666666668,600,28C627.7777777777778,28.833333333333332,638.8888888888889,9.166666666666666,666.6666666666667,10C694.4444444444446,10.833333333333334,707.6388888888889,32,733.3333333333334,32C759.0277777777778,32,778.1944444444445,14.583333333333332,790,10" transform="matrix(1,0,0,1,0,35)"></path></g></svg>
