<svg xmlns="http://www.w3.org/2000/svg" version="1.1" xmlns:xlink="http://www.w3.org/1999/xlink" xmlns:svgjs="http://svgjs.dev/svgjs" viewBox="0 0 800 800" opacity="0.48"><defs><linearGradient x1="50%" y1="0%" x2="50%" y2="100%" id="uundulate-grad"><stop stop-color="hsl(45, 46%, 51%)" stop-opacity="1" offset="45%"></stop><stop stop-color="hsl(301, 65%, 34%)" stop-opacity="1" offset="100%"></stop></linearGradient></defs><g stroke-width="2" stroke="url(#uundulate-grad)" fill="none"><path d="M859.9314863947732 330.8633874077957C815.1102962805721 512.8444498313554 832.1958821168478 475.92352631311087 722.485323285495 627.8762803025431C612.7747644541423 779.8290342919754 518.8972275167112 1051.8666534444928 333.32080400428003 1060.2366065570723C147.74438049184891 1068.6065596696517 -131.63849725980623 850.1672790088164 -168.28150957417495 668.0520552429243C-204.92452188854372 485.93683147703223 38.44521609938943 328.7378429910568 157.43434489531023 186.0835324807889C276.4234736912308 43.429221970520985 240.32616470075288 73.25227142099936 402.8663086462426 -16.688635206361482C565.4064525917324 -106.62954183372233 842.4051238027164 -318.0394907084914 937.6270358336603 -245.6328193305418C1032.848947864604 -173.2261479525922 904.7526765089744 148.8823249842361 859.9314863947732 330.8633874077957C815.1102962805721 512.8444498313554 832.1958821168478 475.92352631311087 722.485323285495 627.8762803025431 "></path><path d="M839.0255111276281 334.00585528308045C796.2416478367995 507.71505123284214 812.5506161350627 472.47235151088125 707.8269008869534 617.5181621371576C603.103185638844 762.5639727634339 513.4928094712959 1022.2362455908369 336.3516779367026 1030.225746289208C159.21054640210934 1038.2152469875791 -107.47310963356148 829.7050245386004 -142.45053047909528 655.8677654893395C-177.42795132462908 482.0305064400791 54.87952584567074 331.9769265216479 168.46005787814056 195.8069028527559C282.0405899106104 59.63687918386381 247.58406769242674 88.10433547750222 402.7360232767579 2.2516518786577535C557.8879788610889 -83.60103172018671 822.2958013806647 -285.4014374642844 913.1894446829292 -216.28597842169614C1004.083087985194 -147.17051937910787 881.8093744184564 160.2966593333191 839.0255111276281 334.00585528308045C796.2416478367995 507.71505123284214 812.5506161350627 472.47235151088125 707.8269008869534 617.5181621371576 "></path><path d="M818.1195053429046 337.14844522867793C777.3729688754493 502.58577470464115 792.9053196356997 469.02129877896436 693.1684479708335 607.1601660420847C593.4315763059676 745.2990333052048 508.0883609083028 992.6059598074935 339.3825213515472 1000.2150080916565C170.67668179479165 1007.8240563758193 -83.30775252489485 809.2428921386968 -116.61958190159373 643.6835978060676C-149.93141127829256 478.1243034734382 71.31380507437393 335.2161321225516 179.48574034339276 205.5303952950353C287.6576756124116 75.84465846751914 254.8419401665226 102.95652160431746 402.6057073896951 21.19206103398949C550.3694746128676 -60.57239953633848 802.1864484410348 -252.76326214976496 888.7518230146202 -186.939015442538C975.3171975882055 -121.11476873531109 858.8660418103602 171.7111157527146 818.1195053429046 337.14844522867793C777.3729688754493 502.58577470464115 792.9053196356997 469.02129877896436 693.1684479708335 607.1601660420847 "></path><path d="M797.2135300757595 340.2910351742753C758.5043204316767 497.4564981764404 773.2600536539148 465.5702460470475 678.5100255722919 596.8021699470116C583.7599974906691 728.0340938469758 502.68394286288765 962.9756740241501 342.41339528396986 970.2042698941048C182.14284770505208 977.4328657640597 -59.1423648986501 788.7807597387932 -90.788602806514 631.4994301227953C-122.43484071437797 474.21810050679767 87.74811482065525 338.4553377234553 190.5114533262231 215.2538877373148C293.27479183179094 92.05243775117435 262.09984315819634 117.80870773113293 402.4754220202103 40.13247018932134C542.8510008822242 -37.543767352490306 782.0771260189831 -220.12508683524544 864.3142318638893 -157.59205246337984C946.5513377087952 -95.0590180915143 835.9227397198424 183.12557217211008 797.2135300757595 340.2910351742753C758.5043204316767 497.4564981764404 773.2600536539148 465.5702460470475 678.5100255722919 596.8021699470116 "></path><path d="M776.3075548086144 343.43359460229453C739.6356719879041 492.3271911306615 753.6147876721298 462.11916279755235 663.8516031737504 586.4441433343604C574.0884186753708 710.7691238711686 497.2795248174724 933.3453577232285 345.4442692163925 940.1935011789753C193.6090136153125 947.0416446347219 -34.976977272405406 768.3185968213115 -64.95762371143434 619.3152319219453C-94.93827015046332 470.3118670225788 104.18242456693656 341.6945128067807 201.53716630905353 224.9773496620162C298.8919080511705 108.26018651725155 269.3577461498703 132.66086334037016 402.3451366507255 59.07284882707495C535.3325271515808 -14.515165686220257 761.9678035969314 -187.48694203830405 839.8766407131582 -128.24512000179982C917.785477829385 -69.00329796529559 812.9794376293244 194.53999807392756 776.3075548086144 343.43359460229453C739.6356719879041 492.3271911306615 753.6147876721298 462.11916279755235 663.8516031737504 586.4441433343604 "></path><path d="M755.4015795414689 346.5761845478919C720.7670235441319 487.19791460246074 733.9695216903447 458.66811006563535 649.1931807752085 576.0861472392876C564.4168398600724 693.5041844129398 491.8751067720573 903.7150719398851 348.47514314881505 910.1827629814238C205.07517952557293 916.6504540229623 -10.811589646160655 747.856464421408 -39.12664461635467 607.1310642386729C-67.44169958654868 466.40566405593825 120.61673431321788 344.9337184076844 212.56287929188386 234.7008421042957C304.50902427054984 124.46796580090677 276.61564914154405 147.5130494671855 402.2148512812407 78.01325798240669C527.8140534209374 8.513466497627917 741.8584811748797 -154.8487667237846 815.439049562427 -98.89815702264167C889.0196179499746 -42.9475473214988 790.0361355388063 205.95445449332306 755.4015795414689 346.5761845478919C720.7670235441319 487.19791460246074 733.9695216903447 458.66811006563535 649.1931807752085 576.0861472392876 "></path><path d="M734.4956042743238 349.7188355286455C701.8983751003593 482.0686991094161 714.3242557085598 455.2171183688746 634.5347583766669 565.7282121793709C554.745261044774 676.239305989867 486.47068872664215 874.0848471916979 351.5060170812378 880.1720858190283C216.54134543583336 886.2593244463587 13.353797980084096 727.3943930566604 -13.295665521274998 594.9469575905573C-39.945129022634035 462.49952212445373 137.0510440594992 348.17298504374435 223.5885922747142 244.42439558173135C310.1261404899293 140.67580611971835 283.873552133218 162.36529662915723 402.08456591175604 96.95372817289467C520.2955796902941 31.54215971663234 721.7491587528277 -122.21053037410883 791.0014584116961 -69.55113300832727C860.2537580705643 -16.89173564254577 767.0928334482883 217.3689719478748 734.4956042743238 349.7188355286455C701.8983751003593 482.0686991094161 714.3242557085598 455.2171183688746 634.5347583766669 565.7282121793709 "></path><path d="M713.5896290071787 352.86139495666475C683.029726656587 476.9393920636371 694.678989726775 451.76603511937947 619.8763359781252 555.3701855667198C545.0736822294756 658.9743360140601 481.066270681227 844.4545308907764 354.53689101366035 850.1613171038987C228.00751134609368 855.8681033170208 37.51918560632885 706.932230139179 12.535313573804729 582.7627593897068C-12.448558458719447 458.59328864023496 153.4853538057805 351.4121601270699 234.61430525754463 254.14785750643273C315.74325670930875 156.88355488579555 291.1314551248919 177.21745223839434 401.95428054227125 115.8941068106484C512.7771059596507 54.57076138290239 701.6398363307762 -89.57238557716744 766.563867260965 -40.204200546747245C831.4878981911543 9.163984483672948 744.1495313577702 228.78339784969216 713.5896290071787 352.86139495666475C683.029726656587 476.9393920636371 694.678989726775 451.76603511937947 619.8763359781252 555.3701855667198 "></path><path d="M692.6836537400334 356.003954384684C664.1610782128145 471.8100850178582 675.0337237449899 448.31495186988445 605.2179135795835 545.0121589540687C535.4021034141772 641.7093660382528 475.6618526358119 814.8242145898548 357.5677649460831 820.150548388769C239.47367725635422 825.476882187683 61.6845732325736 686.470067221697 38.3662926688844 570.5785611888566C15.048012105195198 454.6870551560162 169.91966355206176 354.6513352103955 245.64001824037496 263.8713194311341C321.3603729286881 173.09130365187275 298.38935811656575 192.0696078476317 401.82399517278657 134.83448544840206C505.2586322290073 77.59936304917244 681.5305139087243 -56.934240780226105 742.1262761102339 -10.85726808516722C802.7220383117437 35.21970460989161 721.2062292672522 240.19782375150953 692.6836537400334 356.003954384684C664.1610782128145 471.8100850178582 675.0337237449899 448.31495186988445 605.2179135795835 545.0121589540687 "></path><path d="M671.777678472888 359.1465138127031C645.292429769042 466.68077797207934 655.3884577632048 444.8638686203893 590.5594911810418 534.6541323414175C525.7305245988789 624.4443960624457 470.25743459039677 785.1938982889333 360.59863887850565 790.1397796736392C250.93984316661454 795.0856610583451 85.84996085881835 666.0079043042153 64.19727176396407 558.3943629880064C42.54458266910984 450.7808216717974 186.35397329834308 357.89051029372104 256.6657312232053 273.5947813558355C326.97748914806755 189.29905241794995 305.6472611082396 206.92176345686892 401.6937098033018 153.77486408615573C497.74015849836394 100.62796471544249 661.4211914866726 -24.296095983284715 717.688684959503 18.489664376412804C773.9561784323337 61.275424736110324 698.2629271767343 251.612249653327 671.777678472888 359.1465138127031C645.292429769042 466.68077797207934 655.3884577632048 444.8638686203893 590.5594911810418 534.6541323414175 "></path><path d="M650.8717032057428 362.2890732407225C626.4237813252695 461.55147092630045 635.7431917814198 441.4127853708942 575.9010687825001 524.2961057287664C516.0589457835805 607.1794260866386 464.85301654498153 755.5635819880117 363.6295128109283 760.1290109585095C262.40600907687497 764.6944399290073 110.0153484850631 645.5457413867337 90.0282508590438 546.2101647871561C70.04115323302443 446.87458818757864 202.7882830446244 361.1296853770466 267.6914442060356 283.31824328053676C332.594605367447 205.50680118402704 312.90516409991346 221.77391906610615 401.563424433817 172.71524272390934C490.2216847677205 123.65656638171254 641.3118690646209 8.342048813656675 693.2510938087721 47.83659683799283C745.1903185529234 87.33114486232898 675.3196250862162 263.0266755551444 650.8717032057428 362.2890732407225C626.4237813252695 461.55147092630045 635.7431917814198 441.4127853708942 575.9010687825001 524.2961057287664 "></path><path d="M629.9657279385975 365.43169370389785C607.555132881497 456.4222249156777 616.0979257996348 437.96176315655543 561.2426463839585 513.9381401512716C506.3873669682821 589.9145171459877 459.4485984995665 725.9333267222464 366.66038674335095 730.1183032785361C273.8721749871354 734.3032798348258 134.18073611130785 625.0836395044082 115.85922995412346 534.0260276214622C97.53772379693908 442.9684157385161 219.22259279090565 364.3689214955284 278.71715718886605 293.0417662403945C338.21172158682634 221.7146109852605 320.16306709158744 236.62613571049974 401.4331390643322 191.65568239681926C482.70321103707715 146.68522908313884 621.2025466425691 40.98025464575426 668.8135026580411 77.1835903347291C716.424458673513 113.3869260237039 652.3763229956982 274.4411624921181 629.9657279385975 365.43169370389785C607.555132881497 456.4222249156777 616.0979257996348 437.96176315655543 561.2426463839585 513.9381401512716 "></path><path d="M609.0597831890304 368.5742836494952C588.6865149553028 451.2929483874768 596.452690335428 434.51071042463843 546.5842545029949 503.5801440561986C496.71581867056193 572.6495776877587 454.0442109717295 696.303040938903 369.69129119335173 700.1075650809845C285.33837141497395 703.9120892230659 158.34615425513067 604.6215071045046 141.69023956678126 521.84185993819C125.03432487843185 439.06221277187535 235.6569330547651 367.6081270964321 289.7429006892745 302.7652586826739C343.8288683237839 237.92239026891582 327.4210006008394 251.47832183731498 401.3028842124256 210.596091552151C475.18476782401194 169.713861266987 601.0932547380955 73.61842996027377 644.3759420248882 106.53055331388725C687.6586293116809 139.44267666750073 629.4330514227582 285.8556189115136 609.0597831890304 368.5742836494952C588.6865149553028 451.2929483874768 596.452690335428 434.51071042463843 546.5842545029949 503.5801440561986 "></path><path d="M588.1537774043072 371.71684307751445C569.817835993952 446.16364134169794 576.8073938360649 431.0596271751433 531.9258015868752 493.2221174435474C487.0442093376854 555.3846077119515 448.63976240873626 666.6727246379814 372.72213460819626 670.0967963658549C296.80450680765625 673.5208680937282 182.5115113637973 584.159344187023 167.5211881442828 509.6576617373398C152.53086492476837 435.1559792876566 252.09121228346828 370.84730217975755 300.76858315452677 312.4887206073753C349.44595402558525 254.13013903499296 334.67887307493515 266.33047744655227 401.1725683253628 229.53647018990466C467.6662635757905 192.74246293325706 580.9839017984657 106.25657475721516 619.9383203565791 135.87748577546728C658.8927389146925 165.4983967937194 606.4897188146622 297.27004481333097 588.1537774043072 371.71684307751445C569.817835993952 446.16364134169794 576.8073938360649 431.0596271751433 531.9258015868752 493.2221174435474 "></path><path d="M567.24783265474 374.85941776432276C550.9492180677578 441.0343495547081 557.162158371858 427.60855918443735 517.2674097059116 482.8641060896855C477.3726610399651 538.1196529949335 443.23537488089914 637.042423595849 375.75303905819703 640.0860429095142C308.2707032354948 643.1296622231794 206.67692950762017 563.6971965283302 193.35219775694065 497.47347879527865C180.02746600626108 431.24976106222687 268.5255525473277 374.0864925218722 311.7943266549352 322.21219779086573C355.0631007625428 270.3379030598592 341.93680658418714 281.1826483145786 401.04231347345615 248.47686408644734C460.14782036272516 215.77107985831617 560.874609893992 138.89473481294556 595.5007597234262 165.22443349583637C630.1269095528603 191.55413217872712 583.5464472417223 308.6844859739374 567.24783265474 374.85941776432276C550.9492180677578 441.0343495547081 557.162158371858 427.60855918443735 517.2674097059116 482.8641060896855 "></path><path d="M546.3418573875948 378.00196193355293C532.0805696239854 435.90502725014005 537.516892390073 424.15746067615316 502.60898730736994 472.5060642182452C467.7010822246667 520.8546677603374 437.83095683548413 607.4120920361383 378.7839129906197 610.0752589355955C319.73686914575524 612.7384258350525 230.84231713386492 543.2350183520595 219.18317685202032 485.28926533563924C207.52403657017572 427.34351231921903 284.95986229360904 377.3256523464087 322.8200396377656 331.935644456778C360.6802169819222 286.5456365671473 349.194709575861 296.0347886650268 400.91202810397135 267.417227465412C452.6293466320817 238.79966626579716 540.7652874719403 171.53286435109788 571.0631685726951 194.57135069862733C601.36104967345 217.60983704615677 560.6031451512042 320.0988966169657 546.3418573875948 378.00196193355293C532.0805696239854 435.90502725014005 537.516892390073 424.15746067615316 502.60898730736994 472.5060642182452 "></path><path d="M525.4358516028715 381.14453662036124C513.2118906626347 430.7757354631502 517.8715958907098 420.7063926854471 487.95053439125013 462.1480528643832C458.0294728917902 503.5897130433193 432.42650827249076 577.7817909940059 381.81475640546415 580.0645054792548C331.2030045384375 582.3472199645037 255.00767424253155 522.7728706933668 245.01412542952187 473.1050823935781C235.02057661651224 423.4372940937893 301.3941415223122 380.5648426885233 333.8457221030178 341.6591216402684C366.2973026837235 302.7534005920135 356.45258204995673 310.8869595330531 400.7817122169085 286.35762136195467C445.11084238386024 261.82828319085627 520.6559345323104 204.17102440682834 546.625546904386 223.91829841899641C572.5951592764617 243.6655724311645 537.659812543108 331.5133377775722 525.4358516028715 381.14453662036124C513.2118906626347 430.7757354631502 517.8715958907098 420.7063926854471 487.95053439125013 462.1480528643832 "></path><path d="M504.52987633572616 384.2871113071695C494.3432422188623 425.6464436761603 498.226329908925 417.25532469474115 473.29211199270844 451.7900415105212C448.3578940764919 486.3247583263012 427.0220902270757 548.1514899518734 384.8456303378868 550.0537520229141C342.6691704486979 551.9560140939548 279.1730618687763 502.3107230346742 270.8451045246016 460.9208994515169C262.51714718042683 419.5310758683595 317.8284512685935 383.8040330306379 344.8714350858482 351.3825988237588C371.9144189031029 318.9611646168798 363.71048504163065 325.73913040107936 400.65142684742375 305.2980152584974C437.5923686532169 284.8569001159154 500.5466121102587 236.8091844625588 522.187955753655 253.2652461393655C543.8292993970514 269.7213078161722 514.71651045259 342.9277789381787 504.52987633572616 384.2871113071695C494.3432422188623 425.6464436761603 498.226329908925 417.25532469474115 473.29211199270844 451.7900415105212 "></path><path d="M483.62391632737 387.42970125276685C475.4746090338789 420.5171671479595 478.58107918592896 413.80427196282415 458.6337048529558 441.4320454154482C438.68633051998256 469.05981886807217 421.6176874404496 518.52120416853 387.8765195290985 520.0430138253626C354.1353516177474 521.5648234821952 303.3384647538101 481.8485906347705 296.6760988784703 448.7367317682448C290.01373300313054 415.6248729017189 334.26277627366386 387.04323863154156 355.89716332746764 361.10609126603833C377.53155038127136 335.16894390053506 370.96840329209357 340.5913165278948 400.5211567367281 324.23842441382914C430.0739101813626 307.88553229976355 480.43730494699594 269.44735977707825 497.7503798617131 282.61220911852365C515.0634547764301 295.77705845996906 491.77322362086113 354.34223535757417 483.62391632737 387.42970125276685C475.4746090338789 420.5171671479595 478.58107918592896 413.80427196282415 458.6337048529558 441.4320454154482 "></path><path d="M462.7179410602248 390.57227593957515C456.6059605901064 415.38787536096964 458.935813204144 410.3532039721181 443.9752824544141 431.07403406158613C429.01475170468416 451.7948641510542 416.21326939503444 488.89090312639746 390.9073934615211 490.03226036902197C365.60151752800783 491.17361761164636 327.5038523800548 461.38644297607794 322.50707797355 436.55254882618357C317.5103035670452 411.7186546762892 350.6970860199452 390.2824289736562 366.92287631029797 370.8295684495287C383.1486666006508 351.3767079254013 378.2263062837674 355.44348739592107 400.39087136724334 343.17881831037187C422.5554364507192 330.91414922482267 460.3279825249443 302.0855198328087 473.3127887109821 311.95915683889274C486.2975948970199 321.8327938449768 468.8299215303431 365.7566765181806 462.7179410602248 390.57227593957515C456.6059605901064 415.38787536096964 458.935813204144 410.3532039721181 443.9752824544141 431.07403406158613 "></path><path d="M441.8119505342905 393.7148506263834C437.7372968875449 410.25858357397976 439.29053196356995 406.9021359814121 429.3168447970834 420.7160227077241C419.34315763059675 434.5299094340361 410.80883609083025 459.260602084265 393.9382521351547 460.0215069126813C377.06766817947914 460.7824117410976 351.6692247475105 440.92429531738526 348.3380418098406 424.3683658841224C345.00685887217077 407.8124364508594 367.13138050743737 393.5216193157708 377.9485740343393 380.55304563301917C388.76576756124115 367.5844719502675 385.4841940166523 370.29565826394736 400.2605707389695 362.1192122069146C415.0369474612868 353.9427661498818 440.21864484410344 334.72367988853915 448.875182301462 341.3061045592618C457.53171975882054 347.8885292299845 445.88660418103603 377.1711176787871 441.8119505342905 393.7148506263834C437.7372968875449 410.25858357397976 439.29053196356995 406.9021359814121 429.3168447970834 420.7160227077241 "></path><path d="M420.90599052593427 396.85741005440264C418.86866370256155 405.1292765282008 419.64528124057404 403.45105273191695 414.65843765733075 410.35799609507296C409.67159407408747 417.264939458229 405.4044333042042 429.6302857833434 396.9691413263664 430.0107381975516C388.53384934852863 430.3911906117597 375.8346276325443 420.46213239990357 374.1690361637094 412.1841676832721C372.5034446948744 403.90620296664065 383.56570551250775 396.7607943990963 388.9743022759587 390.2765075577205C394.38289903940966 383.79222071634473 392.7421122671152 385.14781387318465 400.1303006282738 381.0595908446682C407.51848898943246 376.9713678161518 420.1093376808408 367.3618246854805 424.4376064095201 370.65303702084185C428.76587513819936 373.9442493562032 422.9433173493071 388.5855435806045 420.90599052593427 396.85741005440264C418.86866370256155 405.1292765282008 419.64528124057404 403.45105273191695 414.65843765733075 410.35799609507296 "></path></g></svg>